<svg xmlns="http://www.w3.org/2000/svg" version="1.1" width="2075px" height="771px"
    style="shape-rendering:geometricPrecision; text-rendering:geometricPrecision; image-rendering:optimizeQuality; fill-rule:evenodd; clip-rule:evenodd"
    xmlns:xlink="http://www.w3.org/1999/xlink">
    <g>
        <path style="opacity:0.783" fill="#9f1e1d"
            d="M 548.5,29.5 C 549.833,29.5 551.167,29.5 552.5,29.5C 552.537,39.3533 550.37,48.6867 546,57.5C 542.66,62.9103 540.66,62.2437 540,55.5C 537.935,45.0505 540.768,36.3838 548.5,29.5 Z" />
    </g>
    <g>
        <path style="opacity:0.77" fill="#9f1e1d"
            d="M 455.5,34.5 C 464.576,38.4113 470.742,45.078 474,54.5C 474.743,56.4406 474.576,58.2739 473.5,60C 468.165,59.7055 463.998,57.2055 461,52.5C 456.46,47.1467 454.627,41.1467 455.5,34.5 Z" />
    </g>
    <g>
        <path style="opacity:0.8" fill="#9f1e1e"
            d="M 488.5,64.5 C 487.041,64.5674 485.708,64.2341 484.5,63.5C 481.215,53.4495 482.381,43.7828 488,34.5C 491.19,38.394 493.023,42.894 493.5,48C 492.732,53.8029 491.065,59.3029 488.5,64.5 Z" />
    </g>
    <g>
        <path style="opacity:0.775" fill="#9f1e1d"
            d="M 587.5,34.5 C 589.715,35.9239 590.715,38.0906 590.5,41C 589.765,51.8737 586.265,61.707 580,70.5C 575.124,61.6344 575.457,52.9677 581,44.5C 583.426,41.3088 585.593,37.9754 587.5,34.5 Z" />
    </g>
    <g>
        <path style="opacity:0.786" fill="#9f1e1d"
            d="M 621.5,34.5 C 624.505,34.253 627.005,35.253 629,37.5C 633.456,42.4113 636.289,48.078 637.5,54.5C 627.821,54.159 622.154,49.159 620.5,39.5C 620.592,37.7422 620.925,36.0755 621.5,34.5 Z" />
    </g>
    <g>
        <path style="opacity:0.773" fill="#9f1e1d"
            d="M 664.5,34.5 C 666.167,34.5 667.833,34.5 669.5,34.5C 670.404,42.352 668.904,49.6853 665,56.5C 663.062,57.8602 661.396,57.5268 660,55.5C 656,47.3317 657.5,40.3317 664.5,34.5 Z" />
    </g>
    <g>
        <path style="opacity:0.736" fill="#9f1e1d"
            d="M 687.5,37.5 C 690.5,37.5 693.5,37.5 696.5,37.5C 696.236,46.5186 691.736,50.5186 683,49.5C 681.474,44.2389 682.974,40.2389 687.5,37.5 Z" />
    </g>
    <g>
        <path style="opacity:0.799" fill="#9f1e1d"
            d="M 520.5,55.5 C 527.059,57.2064 530.892,61.5397 532,68.5C 532.497,71.146 532.664,73.8127 532.5,76.5C 523.532,76.025 519.199,71.1917 519.5,62C 520.287,59.9011 520.62,57.7345 520.5,55.5 Z" />
    </g>
    <g>
        <path style="opacity:0.77" fill="#9f1e1e"
            d="M 672.5,67.5 C 675.499,63.8237 674.832,62.8237 670.5,64.5C 677.814,60.1802 685.814,58.6802 694.5,60C 697.105,60.0264 698.271,61.193 698,63.5C 690.602,72.2612 682.102,73.5946 672.5,67.5 Z" />
    </g>
    <g>
        <path style="opacity:0.785" fill="#9f1e1d"
            d="M 556.5,60.5 C 559.243,60.0772 560.576,61.2439 560.5,64C 557.272,72.7093 550.939,77.5426 541.5,78.5C 541.248,75.6802 541.748,73.0135 543,70.5C 546.609,65.6917 551.109,62.3584 556.5,60.5 Z" />
    </g>
    <g>
        <path style="opacity:0.792" fill="#9f1e1d"
            d="M 434.5,63.5 C 446.459,62.4339 457.459,65.1006 467.5,71.5C 457.829,76.8382 448.162,76.6715 438.5,71C 436.46,68.8149 435.126,66.3149 434.5,63.5 Z" />
    </g>
    <g>
        <path style="opacity:0.806" fill="#9f1f1e"
            d="M 588.5,97.5 C 588.685,92.4295 589.352,87.4295 590.5,82.5C 593.394,77.9283 597.394,74.9283 602.5,73.5C 602.427,84.3288 597.76,92.3288 588.5,97.5 Z" />
    </g>
    <g>
        <path style="opacity:0.83" fill="#9f1e1d"
            d="M 733.5,75.5 C 736.5,75.5 739.5,75.5 742.5,75.5C 739.514,89.4809 730.848,97.1476 716.5,98.5C 717.207,87.1314 722.874,79.4648 733.5,75.5 Z" />
    </g>
    <g>
        <path style="opacity:0.749" fill="#9f1e1d"
            d="M 557.5,80.5 C 563.77,81.6436 567.937,85.3103 570,91.5C 570.863,94.2686 571.363,97.102 571.5,100C 571.66,102.47 570.993,104.636 569.5,106.5C 560.1,100.365 556.1,91.6981 557.5,80.5 Z" />
    </g>
    <g>
        <path style="opacity:0.757" fill="#9f1e1d"
            d="M 762.5,86.5 C 766.446,86.4819 770.112,87.4819 773.5,89.5C 771.361,94.2439 767.694,97.0772 762.5,98C 758.514,98.4988 754.514,98.6655 750.5,98.5C 750.608,96.2166 751.441,94.2166 753,92.5C 755.843,89.8373 759.009,87.8373 762.5,86.5 Z" />
    </g>
    <g>
        <path style="opacity:0.525" fill="#9d2221"
            d="M 588.5,84.5 C 588.164,89.8858 586.83,94.8858 584.5,99.5C 583.5,99.5 582.5,99.5 581.5,99.5C 582.514,93.8084 584.848,88.8084 588.5,84.5 Z" />
    </g>
    <g>
        <path style="opacity:0.84" fill="#626269"
            d="M 670.5,64.5 C 674.832,62.8237 675.499,63.8237 672.5,67.5C 663.784,73.9465 654.951,80.2798 646,86.5C 640.821,100.524 634.321,113.858 626.5,126.5C 621.595,125.555 616.595,125.221 611.5,125.5C 628.118,105.61 640.618,83.2767 649,58.5C 650.984,50.566 652.65,42.566 654,34.5C 656.703,49.4706 654.87,63.9706 648.5,78C 656.154,74.2124 663.487,69.7124 670.5,64.5 Z" />
    </g>
    <g>
        <path style="opacity:0.762" fill="#9f1e1d"
            d="M 403.5,93.5 C 410.092,93.3781 414.592,96.3781 417,102.5C 418.149,105.393 418.649,108.393 418.5,111.5C 407.697,110.362 402.697,104.362 403.5,93.5 Z" />
    </g>
    <g>
        <path style="opacity:0.791" fill="#9f1e1e"
            d="M 438.5,121.5 C 437.662,121.842 437.328,122.508 437.5,123.5C 435.408,123.439 433.908,122.439 433,120.5C 430.494,110.853 431.994,101.853 437.5,93.5C 438.478,93.9767 439.311,94.6433 440,95.5C 443.443,104.361 442.943,113.028 438.5,121.5 Z" />
    </g>
    <g>
        <path style="opacity:0.767" fill="#9f1e1d"
            d="M 464.5,95.5 C 475.667,98.0685 484.334,104.069 490.5,113.5C 478.366,114.906 469.2,110.24 463,99.5C 462.516,97.8067 463.016,96.4733 464.5,95.5 Z" />
    </g>
    <g>
        <path style="opacity:0.76" fill="#9e201f"
            d="M 534.5,116.5 C 536.621,111.639 538.455,106.639 540,101.5C 540.377,100.058 541.21,99.0577 542.5,98.5C 544.042,97.6993 545.708,97.366 547.5,97.5C 547.393,106.71 543.06,113.044 534.5,116.5 Z" />
    </g>
    <g>
        <path style="opacity:0.752" fill="#a01d1d"
            d="M 343.5,99.5 C 348.96,100.652 353.127,103.652 356,108.5C 357.199,111.726 357.699,115.059 357.5,118.5C 346.599,116.616 341.932,110.283 343.5,99.5 Z" />
    </g>
    <g>
        <path style="opacity:0.824" fill="#9f1e1e"
            d="M 377.5,127.5 C 376.596,128.209 376.263,129.209 376.5,130.5C 375.833,130.5 375.167,130.5 374.5,130.5C 373.89,128.566 372.89,126.899 371.5,125.5C 369.938,116.145 371.771,107.479 377,99.5C 382.791,108.685 382.957,118.018 377.5,127.5 Z" />
    </g>
    <g>
        <path style="opacity:0.818" fill="#9f1e1e"
            d="M 743.5,102.5 C 746.484,103.748 749.318,105.415 752,107.5C 752.498,110.887 750.998,113.053 747.5,114C 741.162,114.498 737.162,111.665 735.5,105.5C 737.401,105.754 738.067,105.42 737.5,104.5C 737.842,103.662 738.508,103.328 739.5,103.5C 740.167,104.833 740.833,104.833 741.5,103.5C 741.842,102.662 742.508,102.328 743.5,102.5 Z" />
    </g>
    <g>
        <path style="opacity:0.029" fill="#982727"
            d="M 498.5,101.5 C 500.293,103.426 501.293,105.759 501.5,108.5C 498.908,106.964 497.908,104.631 498.5,101.5 Z" />
    </g>
    <g>
        <path style="opacity:0.752" fill="#9f1e1d"
            d="M 781.5,107.5 C 787.969,107.151 794.302,107.817 800.5,109.5C 798.125,113.723 794.458,116.556 789.5,118C 783.55,119.621 777.55,119.788 771.5,118.5C 773.412,113.586 776.745,109.919 781.5,107.5 Z" />
    </g>
    <g>
        <path style="opacity:0.732" fill="#9f1e1d"
            d="M 391.5,119.5 C 403.47,118.359 414.47,121.026 424.5,127.5C 421.831,130.332 418.498,131.832 414.5,132C 405.902,133.436 398.736,130.936 393,124.5C 391.991,122.975 391.491,121.308 391.5,119.5 Z" />
    </g>
    <g>
        <path style="opacity:0.764" fill="#9f1e1d"
            d="M 549.5,119.5 C 555.072,122.235 559.572,126.235 563,131.5C 563.498,134.817 563.665,138.15 563.5,141.5C 558.04,140.348 553.873,137.348 551,132.5C 549.633,128.3 549.133,123.967 549.5,119.5 Z" />
    </g>
    <g>
        <path style="opacity:0.499" fill="#5e5d62"
            d="M 371.5,125.5 C 372.89,126.899 373.89,128.566 374.5,130.5C 368.686,127.783 362.686,125.449 356.5,123.5C 355.614,122.675 355.281,121.675 355.5,120.5C 361.097,121.366 366.43,123.033 371.5,125.5 Z" />
    </g>
    <g>
        <path style="opacity:0.8" fill="#a01d1d"
            d="M 747.5,122.5 C 760.127,122.242 771.794,125.575 782.5,132.5C 772.331,136.732 762.331,136.232 752.5,131C 749.928,128.687 748.261,125.854 747.5,122.5 Z" />
    </g>
    <g>
        <path style="opacity:0.769" fill="#9f1e1d"
            d="M 714.5,123.5 C 723.685,126.849 730.185,133.182 734,142.5C 734.49,143.793 734.657,145.127 734.5,146.5C 721.482,144.475 714.815,136.809 714.5,123.5 Z" />
    </g>
    <g>
        <path style="opacity:0.801" fill="#9f1e1d"
            d="M 332.5,126.5 C 339.287,126.353 345.954,127.187 352.5,129C 356.759,129.799 360.425,131.632 363.5,134.5C 356.291,138.797 348.624,139.63 340.5,137C 336.759,135.262 333.592,132.762 331,129.5C 330.761,128.212 331.261,127.212 332.5,126.5 Z" />
    </g>
    <g>
        <path style="opacity:0.907" fill="#5c5d62"
            d="M 590.5,82.5 C 589.352,87.4295 588.685,92.4295 588.5,97.5C 585.477,117.395 583.977,137.395 584,157.5C 593.406,146.936 602.572,136.269 611.5,125.5C 616.595,125.221 621.595,125.555 626.5,126.5C 626.047,127.458 625.381,128.292 624.5,129C 633.608,126.293 642.608,122.96 651.5,119C 681.845,109.056 712.845,103.223 744.5,101.5C 744.376,102.107 744.043,102.44 743.5,102.5C 742.508,102.328 741.842,102.662 741.5,103.5C 740.833,103.5 740.167,103.5 739.5,103.5C 738.508,103.328 737.842,103.662 737.5,104.5C 736.508,104.328 735.842,104.662 735.5,105.5C 724.62,107.313 713.954,109.98 703.5,113.5C 720.118,115.865 736.785,117.865 753.5,119.5C 747.5,119.833 741.5,120.167 735.5,120.5C 719.473,119.774 703.473,118.94 687.5,118C 657.354,126.071 630.354,139.904 606.5,159.5C 594.5,159.5 582.5,159.5 570.5,159.5C 575.039,139.471 579.706,119.471 584.5,99.5C 586.83,94.8858 588.164,89.8858 588.5,84.5C 588.5,83.1667 589.167,82.5 590.5,82.5 Z" />
    </g>
    <g>
        <path style="opacity:0.769" fill="#5e5d63"
            d="M 484.5,63.5 C 485.708,64.2341 487.041,64.5674 488.5,64.5C 492.187,73.9082 495.854,83.2416 499.5,92.5C 500.37,97.2231 502.036,101.556 504.5,105.5C 508.237,114.546 512.07,123.546 516,132.5C 521.403,127.93 525.903,122.597 529.5,116.5C 533.509,111.823 536.509,106.489 538.5,100.5C 540.557,94.4972 542.724,88.4972 545,82.5C 545.87,83.1079 546.37,83.9412 546.5,85C 545.083,89.5078 543.749,94.0078 542.5,98.5C 541.21,99.0577 540.377,100.058 540,101.5C 538.455,106.639 536.621,111.639 534.5,116.5C 530.364,124.81 524.864,132.143 518,138.5C 519.039,145.418 519.872,152.418 520.5,159.5C 517.167,159.5 513.833,159.5 510.5,159.5C 511.159,141.813 508.159,124.813 501.5,108.5C 501.293,105.759 500.293,103.426 498.5,101.5C 492.869,89.2813 488.202,76.6147 484.5,63.5 Z" />
    </g>
    <g>
        <path style="opacity:0.618" fill="#9d2020"
            d="M 538.5,100.5 C 536.509,106.489 533.509,111.823 529.5,116.5C 529.378,109.411 532.378,104.078 538.5,100.5 Z" />
    </g>
    <g>
        <path style="opacity:0.793" fill="#9f1e1e"
            d="M 504.5,105.5 C 502.036,101.556 500.37,97.2231 499.5,92.5C 500.794,88.2371 503.294,84.9038 507,82.5C 508.221,83.2718 509.221,84.2718 510,85.5C 511.868,93.2907 510.035,99.9573 504.5,105.5 Z" />
    </g>
    <g>
        <path style="opacity:0.797" fill="#9f1e1d"
            d="M 652.5,145.5 C 654.167,145.5 655.833,145.5 657.5,145.5C 655.035,156.969 648.701,165.636 638.5,171.5C 636.976,170.473 636.309,168.973 636.5,167C 637.846,156.826 643.179,149.66 652.5,145.5 Z" />
    </g>
    <g>
        <path style="opacity:0.757" fill="#9f1e1d"
            d="M 401.5,155.5 C 414.243,158.387 418.576,166.054 414.5,178.5C 407.079,173.748 402.413,167.082 400.5,158.5C 400.685,157.416 401.018,156.416 401.5,155.5 Z" />
    </g>
    <g>
        <path style="opacity:0.778" fill="#9f1e1e"
            d="M 367.5,161.5 C 379.914,162.988 385.748,169.988 385,182.5C 376.465,180.3 370.798,174.967 368,166.5C 367.506,164.866 367.34,163.199 367.5,161.5 Z" />
    </g>
    <g>
        <path style="opacity:0.842" fill="#56575b"
            d="M 438.5,121.5 C 444.309,129.392 448.309,138.225 450.5,148C 470.932,155.548 489.932,165.715 507.5,178.5C 509.558,172.381 510.558,166.047 510.5,159.5C 513.833,159.5 517.167,159.5 520.5,159.5C 521.727,168.833 521.06,177.999 518.5,187C 521.383,190.376 524.049,193.876 526.5,197.5C 520.5,197.5 514.5,197.5 508.5,197.5C 502.374,193.208 497.041,188.042 492.5,182C 490.466,180.994 488.3,180.494 486,180.5C 469.82,182.573 453.653,184.74 437.5,187C 422.174,188 406.841,188.333 391.5,188C 387.68,187.765 384.013,186.932 380.5,185.5C 381.025,184.808 381.692,184.308 382.5,184C 394.541,183.866 406.541,183.199 418.5,182C 437.309,178.298 455.976,173.964 474.5,169C 459.924,160.138 444.591,152.805 428.5,147C 410.912,142.192 393.579,136.692 376.5,130.5C 376.263,129.209 376.596,128.209 377.5,127.5C 399,135.042 421,140.708 443.5,144.5C 441.656,137.456 439.656,130.456 437.5,123.5C 437.328,122.508 437.662,121.842 438.5,121.5 Z" />
    </g>
    <g>
        <path style="opacity:0.851" fill="#9f1e1e"
            d="M 599.5,171.5 C 608.966,176.733 614.799,184.733 617,195.5C 617.499,199.821 617.666,204.154 617.5,208.5C 604.257,207.427 596.59,200.26 594.5,187C 595.474,181.579 597.14,176.413 599.5,171.5 Z" />
    </g>
    <g>
        <path style="opacity:0.86" fill="#a01e1e"
            d="M 807.5,191.5 C 803.869,194.629 800.369,197.963 797,201.5C 795.308,198.26 794.141,194.927 793.5,191.5C 795.023,180.65 801.023,173.984 811.5,171.5C 812.864,178.68 811.531,185.347 807.5,191.5 Z" />
    </g>
    <g>
        <path style="opacity:0.78" fill="#9f1e1d"
            d="M 343.5,172.5 C 349.314,172.234 353.314,174.734 355.5,180C 348.513,184.855 342.513,183.688 337.5,176.5C 339.219,174.648 341.219,173.314 343.5,172.5 Z" />
    </g>
    <g>
        <path style="opacity:0.924" fill="#a02120"
            d="M 769.5,191.5 C 766.778,195.937 764.278,200.604 762,205.5C 754.518,215.754 751.851,214.42 754,201.5C 754.922,198.009 756.089,194.675 757.5,191.5C 760.606,187.058 764.606,183.724 769.5,181.5C 770.167,181.667 770.833,181.833 771.5,182C 770.568,185.085 769.901,188.252 769.5,191.5 Z" />
    </g>
    <g>
        <path style="opacity:0.791" fill="#9f1e1d"
            d="M 670.5,182.5 C 672.167,182.5 673.833,182.5 675.5,182.5C 676.209,191.915 672.543,199.082 664.5,204C 662.866,204.494 661.199,204.66 659.5,204.5C 658.753,194.926 662.419,187.592 670.5,182.5 Z" />
    </g>
    <g>
        <path style="opacity:0.902" fill="#9f1e1e"
            d="M 451.5,231.5 C 449.738,230.738 448.738,229.404 448.5,227.5C 447.065,209.697 454.399,197.03 470.5,189.5C 472.029,189.529 473.196,190.196 474,191.5C 478.043,205.484 474.543,217.317 463.5,227C 459.797,229.354 455.797,230.854 451.5,231.5 Z" />
    </g>
    <g>
        <path style="opacity:0.821" fill="#a01d1d"
            d="M 383.5,200.5 C 375.833,203.167 368.167,203.167 360.5,200.5C 360.389,199.883 360.056,199.383 359.5,199C 365.189,194.82 371.523,192.32 378.5,191.5C 381.842,191.481 385.009,192.148 388,193.5C 387.996,196.693 386.496,199.026 383.5,200.5 Z" />
    </g>
    <g>
        <path style="opacity:0.983" fill="#979595"
            d="M 757.5,191.5 C 756.089,194.675 754.922,198.009 754,201.5C 751.851,214.42 754.518,215.754 762,205.5C 764.278,200.604 766.778,195.937 769.5,191.5C 777.5,191.5 785.5,191.5 793.5,191.5C 794.141,194.927 795.308,198.26 797,201.5C 800.369,197.963 803.869,194.629 807.5,191.5C 822.548,191.199 837.548,191.532 852.5,192.5C 850.169,197.829 847.836,203.162 845.5,208.5C 842.781,211.27 841.115,214.604 840.5,218.5C 838.597,221.979 836.93,225.646 835.5,229.5C 832.382,230.232 831.049,231.899 831.5,234.5C 824.051,252.067 816.051,269.4 807.5,286.5C 806.505,280.016 803.505,274.516 798.5,270C 797.668,269.312 797.002,269.479 796.5,270.5C 792.733,279.979 795.067,287.646 803.5,293.5C 800.782,300.605 797.782,307.605 794.5,314.5C 793.733,315.172 793.066,316.005 792.5,317C 784.011,317.915 775.678,319.581 767.5,322C 759.167,322.667 750.833,322.667 742.5,322C 738.284,320.316 733.951,319.149 729.5,318.5C 729.414,317.504 729.748,316.671 730.5,316C 754.494,305.672 772.328,288.839 784,265.5C 793.735,258.047 803.902,251.214 814.5,245C 818.005,242.325 821.339,239.491 824.5,236.5C 813.193,242.172 802.027,248.839 791,256.5C 793.942,243.673 798.109,231.173 803.5,219C 803.167,218.833 802.833,218.667 802.5,218.5C 796.606,231.289 790.439,243.956 784,256.5C 778.909,263.68 773.576,270.68 768,277.5C 764.942,281.062 761.442,284.062 757.5,286.5C 756.914,286.291 756.414,285.957 756,285.5C 753.609,276.086 753.109,266.586 754.5,257C 754.759,255.213 755.425,253.713 756.5,252.5C 761.381,247.198 763.715,240.865 763.5,233.5C 761.03,233.654 759.03,234.654 757.5,236.5C 756.167,237.167 755.167,238.167 754.5,239.5C 749.438,243.98 747.438,249.647 748.5,256.5C 749.5,256.5 750.5,256.5 751.5,256.5C 750.384,268.443 750.384,280.276 751.5,292C 734.251,302.288 715.585,307.955 695.5,309C 681.131,309.537 666.797,310.37 652.5,311.5C 652.232,309.901 652.566,308.568 653.5,307.5C 654.206,308.557 654.539,308.224 654.5,306.5C 654.5,306.167 654.5,305.833 654.5,305.5C 655.404,304.791 655.737,303.791 655.5,302.5C 656.931,301.22 657.598,299.553 657.5,297.5C 659.293,295.574 660.293,293.241 660.5,290.5C 661.338,290.158 661.672,289.492 661.5,288.5C 662.338,288.158 662.672,287.492 662.5,286.5C 663.931,285.22 664.598,283.553 664.5,281.5C 665.167,281.5 665.5,281.167 665.5,280.5C 665.953,279.542 666.619,278.708 667.5,278C 678.545,275.194 689.545,272.527 700.5,270C 690.496,270.929 680.496,272.095 670.5,273.5C 670.167,273.167 669.833,272.833 669.5,272.5C 676.816,259.366 685.483,247.199 695.5,236C 689.851,239.111 684.518,242.944 679.5,247.5C 686.479,229.067 694.146,210.9 702.5,193C 720.74,191.526 739.073,191.026 757.5,191.5 Z" />
    </g>
    <g>
        <path style="opacity:0.783" fill="#a01d1d"
            d="M 648.5,194.5 C 649.822,194.33 650.989,194.663 652,195.5C 654.605,204.737 652.939,213.07 647,220.5C 642.662,217.999 640.495,214.166 640.5,209C 640.994,202.835 643.661,198.002 648.5,194.5 Z" />
    </g>
    <g>
        <path style="opacity:0.985" fill="#ac1c1c"
            d="M 1832.5,338.5 C 1784.83,337.167 1737.17,337.167 1689.5,338.5C 1623.17,338.5 1556.83,338.5 1490.5,338.5C 1490.5,290.833 1490.5,243.167 1490.5,195.5C 1670.5,195.5 1850.5,195.5 2030.5,195.5C 2030.5,243.167 2030.5,290.833 2030.5,338.5C 1964.5,338.5 1898.5,338.5 1832.5,338.5 Z" />
    </g>
    <g>
        <path style="opacity:0.99" fill="#979696"
            d="M 1438.5,338.5 C 1363.5,338.5 1288.5,338.5 1213.5,338.5C 1109.5,338.5 1005.5,338.5 901.5,338.5C 901.5,291.167 901.5,243.833 901.5,196.5C 1081.83,196.5 1262.17,196.5 1442.5,196.5C 1442.5,243.833 1442.5,291.167 1442.5,338.5C 1441.17,338.5 1439.83,338.5 1438.5,338.5 Z" />
    </g>
    <g>
        <path style="opacity:0.98" fill="#222221"
            d="M 114.5,200.5 C 151.167,200.5 187.833,200.5 224.5,200.5C 224.5,379.833 224.5,559.167 224.5,738.5C 187.833,738.5 151.167,738.5 114.5,738.5C 114.5,559.167 114.5,379.833 114.5,200.5 Z" />
    </g>
    <g>
        <path style="opacity:0.991" fill="#ac1d1d"
            d="M 408.5,217.5 C 408.565,217.938 408.399,218.272 408,218.5C 395.256,212.405 383.089,213.405 371.5,221.5C 370.479,222.002 370.312,222.668 371,223.5C 373.928,227.381 377.761,229.881 382.5,231C 393.493,232.42 404.16,231.253 414.5,227.5C 417.375,235.703 420.708,243.703 424.5,251.5C 412.539,248.982 400.539,246.648 388.5,244.5C 383.402,243.043 378.069,242.376 372.5,242.5C 350.435,239.524 328.435,239.857 306.5,243.5C 305.244,243.461 304.244,243.961 303.5,245C 310.492,245.5 317.492,245.666 324.5,245.5C 329.177,245.835 333.844,246.335 338.5,247C 350.779,250.321 363.113,252.988 375.5,255C 355.759,272.698 334.759,288.698 312.5,303C 307.932,305.452 303.265,307.618 298.5,309.5C 297.778,309.918 297.278,310.584 297,311.5C 294.946,308.059 293.446,304.392 292.5,300.5C 291.9,299.1 290.9,298.1 289.5,297.5C 283.58,283.825 277.247,270.325 270.5,257C 272.382,256.802 274.048,256.302 275.5,255.5C 279.161,254.352 282.161,252.186 284.5,249C 278.617,245.847 272.617,245.681 266.5,248.5C 263.048,240.983 259.881,233.317 257,225.5C 256.824,221.312 256.324,217.312 255.5,213.5C 255.5,209.167 255.5,204.833 255.5,200.5C 290.5,200.5 325.5,200.5 360.5,200.5C 368.167,203.167 375.833,203.167 383.5,200.5C 388.844,200.666 394.177,200.499 399.5,200C 405.089,195.082 411.422,192.916 418.5,193.5C 417.812,197.209 416.312,200.543 414,203.5C 410.785,205.461 407.285,206.627 403.5,207C 405.579,210.324 407.246,213.824 408.5,217.5 Z" />
    </g>
    <g>
        <path style="opacity:1" fill="#a02221"
            d="M 717.5,199.5 C 718.833,199.5 720.167,199.5 721.5,199.5C 721.673,211.653 716.34,220.486 705.5,226C 701.605,227.266 697.605,227.766 693.5,227.5C 694.828,212.188 702.828,202.855 717.5,199.5 Z" />
    </g>
    <g>
        <path style="opacity:1" fill="#a02523"
            d="M 830.5,198.5 C 832.207,209.517 828.707,219.184 820,227.5C 816.811,221.594 816.811,215.594 820,209.5C 823.03,205.305 826.53,201.639 830.5,198.5 Z" />
    </g>
    <g>
        <path style="opacity:1" fill="#444140"
            d="M 852.5,192.5 C 853.482,195.962 853.815,199.629 853.5,203.5C 850.885,205.161 848.218,206.828 845.5,208.5C 847.836,203.162 850.169,197.829 852.5,192.5 Z" />
    </g>
    <g>
        <path style="opacity:0.867" fill="#9d1f1f"
            d="M 853.5,203.5 C 855.806,203.993 858.139,204.326 860.5,204.5C 859.847,209.485 857.514,213.485 853.5,216.5C 853.167,216.5 852.833,216.5 852.5,216.5C 849.89,218.637 846.89,219.97 843.5,220.5C 841.97,220.36 840.97,219.693 840.5,218.5C 841.115,214.604 842.781,211.27 845.5,208.5C 848.218,206.828 850.885,205.161 853.5,203.5 Z" />
    </g>
    <g>
        <path style="opacity:0.805" fill="#9f1e1e"
            d="M 661.5,225.5 C 660.081,224.549 658.415,224.216 656.5,224.5C 659.45,213.703 666.45,208.537 677.5,209C 678.428,209.388 679.095,210.055 679.5,211C 675.758,218.57 669.758,223.403 661.5,225.5 Z" />
    </g>
    <g>
        <path style="opacity:0.944" fill="#525255"
            d="M 570.5,159.5 C 582.5,159.5 594.5,159.5 606.5,159.5C 594.368,173.48 583.535,188.48 574,204.5C 569.951,213.462 567.118,222.462 565.5,231.5C 565.5,231.833 565.5,232.167 565.5,232.5C 564.691,234.292 564.191,236.292 564,238.5C 563.51,237.207 563.343,235.873 563.5,234.5C 552.833,234.5 542.167,234.5 531.5,234.5C 525.113,221.396 517.446,209.063 508.5,197.5C 514.5,197.5 520.5,197.5 526.5,197.5C 531.762,203.936 537.262,210.27 543,216.5C 549.323,201.857 557.657,188.524 568,176.5C 569.406,170.923 570.239,165.257 570.5,159.5 Z" />
    </g>
    <g>
        <path style="opacity:1" fill="#fdfdfd"
            d="M 142.5,212.5 C 142.5,219.833 142.5,227.167 142.5,234.5C 161.833,234.5 181.167,234.5 200.5,234.5C 200.5,238.5 200.5,242.5 200.5,246.5C 181.167,246.5 161.833,246.5 142.5,246.5C 142.5,254.167 142.5,261.833 142.5,269.5C 139.167,269.5 135.833,269.5 132.5,269.5C 132.5,250.5 132.5,231.5 132.5,212.5C 135.833,212.5 139.167,212.5 142.5,212.5 Z" />
    </g>
    <g>
        <path style="opacity:1" fill="#bcbcbc"
            d="M 142.5,211.5 C 142.5,211.833 142.5,212.167 142.5,212.5C 139.167,212.5 135.833,212.5 132.5,212.5C 132.5,231.5 132.5,250.5 132.5,269.5C 132.167,269.5 131.833,269.5 131.5,269.5C 131.5,250.167 131.5,230.833 131.5,211.5C 135.167,211.5 138.833,211.5 142.5,211.5 Z" />
    </g>
    <g>
        <path style="opacity:0.989" fill="#891f1c"
            d="M 255.5,213.5 C 256.324,217.312 256.824,221.312 257,225.5C 259.881,233.317 263.048,240.983 266.5,248.5C 265.524,249.815 264.524,251.148 263.5,252.5C 267.04,255.115 271.04,256.115 275.5,255.5C 274.048,256.302 272.382,256.802 270.5,257C 277.247,270.325 283.58,283.825 289.5,297.5C 287.833,297.5 286.167,297.5 284.5,297.5C 282.866,296.839 281.033,296.506 279,296.5C 275.85,296.36 273.017,297.027 270.5,298.5C 267.884,299.48 265.551,300.98 263.5,303C 264.949,304.117 266.616,304.784 268.5,305C 273.833,305.667 279.167,305.667 284.5,305C 287.648,304.262 290.315,302.762 292.5,300.5C 293.446,304.392 294.946,308.059 297,311.5C 297.278,310.584 297.778,309.918 298.5,309.5C 299.209,310.404 300.209,310.737 301.5,310.5C 301.167,311.167 300.833,311.833 300.5,312.5C 300.167,312.5 299.833,312.5 299.5,312.5C 298.4,314.277 297.566,316.277 297,318.5C 296.181,324.681 296.347,330.681 297.5,336.5C 298.011,338.195 298.678,339.861 299.5,341.5C 303.836,337.503 305.836,332.503 305.5,326.5C 306.314,328.631 306.814,330.964 307,333.5C 315.076,349.647 322.576,365.98 329.5,382.5C 323.601,383.368 319.101,386.368 316,391.5C 315.219,392.944 315.386,394.277 316.5,395.5C 323.322,397.427 329.656,396.427 335.5,392.5C 340.722,404.911 346.222,417.244 352,429.5C 352.198,427.618 352.698,425.952 353.5,424.5C 353.166,427.188 353.832,429.521 355.5,431.5C 354.624,431.369 353.957,431.702 353.5,432.5C 357.7,441.112 361.7,449.778 365.5,458.5C 340.056,455.609 318.056,445.443 299.5,428C 298.668,427.312 298.002,427.479 297.5,428.5C 306.384,438.552 316.051,447.719 326.5,456C 341.578,462.526 356.911,468.359 372.5,473.5C 374.928,478.693 377.595,483.693 380.5,488.5C 364.403,500.036 346.403,506.87 326.5,509C 337.192,509.05 347.858,508.383 358.5,507C 367.331,504.404 375.998,501.571 384.5,498.5C 387.033,502.904 389.033,507.571 390.5,512.5C 388.8,513.016 387.467,514.016 386.5,515.5C 388.915,517.374 391.581,518.707 394.5,519.5C 394.5,520.5 394.5,521.5 394.5,522.5C 394.749,533.581 395.416,544.581 396.5,555.5C 395.31,557.826 393.31,558.993 390.5,559C 383.18,559.916 375.846,560.749 368.5,561.5C 377.166,564.167 385.833,564.167 394.5,561.5C 395.183,561.863 395.85,562.196 396.5,562.5C 396.968,573.854 397.634,585.187 398.5,596.5C 395.242,599.091 392.242,602.091 389.5,605.5C 392.193,607.27 395.193,607.937 398.5,607.5C 398.833,649.839 398.5,692.172 397.5,734.5C 349.542,735.495 301.542,735.828 253.5,735.5C 254.143,561.465 254.809,387.465 255.5,213.5 Z" />
    </g>
    <g>
        <path style="opacity:0.97" fill="#fdfafa"
            d="M 408.5,217.5 C 412.417,219.412 416.083,221.745 419.5,224.5C 418.06,225.952 416.394,226.952 414.5,227.5C 404.16,231.253 393.493,232.42 382.5,231C 377.761,229.881 373.928,227.381 371,223.5C 370.312,222.668 370.479,222.002 371.5,221.5C 383.089,213.405 395.256,212.405 408,218.5C 408.399,218.272 408.565,217.938 408.5,217.5 Z" />
    </g>
    <g>
        <path style="opacity:1" fill="#9f2220"
            d="M 772.5,215.5 C 781.145,218.286 784.145,224.12 781.5,233C 779.097,233.63 777.263,232.797 776,230.5C 773.133,225.901 771.966,220.901 772.5,215.5 Z" />
    </g>
    <g>
        <path style="opacity:1" fill="#3e3a39"
            d="M 852.5,216.5 C 852.5,221.167 852.5,225.833 852.5,230.5C 846.932,228.341 841.266,228.008 835.5,229.5C 836.93,225.646 838.597,221.979 840.5,218.5C 840.97,219.693 841.97,220.36 843.5,220.5C 846.89,219.97 849.89,218.637 852.5,216.5 Z" />
    </g>
    <g>
        <path style="opacity:1" fill="#d68c8c"
            d="M 286.5,223.5 C 283.941,223.198 281.607,223.532 279.5,224.5C 278.957,224.44 278.624,224.107 278.5,223.5C 281.309,222.2 283.976,222.2 286.5,223.5 Z" />
    </g>
    <g>
        <path style="opacity:1" fill="#fcf6f6"
            d="M 286.5,223.5 C 293.948,225.943 299.615,230.61 303.5,237.5C 298.429,239.115 293.762,238.281 289.5,235C 285.963,231.631 282.629,228.131 279.5,224.5C 281.607,223.532 283.941,223.198 286.5,223.5 Z" />
    </g>
    <g>
        <path style="opacity:1" fill="#9d201f"
            d="M 852.5,230.5 C 852.443,231.609 852.11,232.609 851.5,233.5C 845.017,238.35 838.351,238.683 831.5,234.5C 831.049,231.899 832.382,230.232 835.5,229.5C 841.266,228.008 846.932,228.341 852.5,230.5 Z" />
    </g>
    <g>
        <path style="opacity:0.878" fill="#9f1e1e"
            d="M 565.5,231.5 C 584.917,229.196 597.251,237.363 602.5,256C 602.739,258.259 601.739,259.426 599.5,259.5C 585.928,257.638 575.095,251.305 567,240.5C 566.601,240.728 566.435,241.062 566.5,241.5C 565.523,238.713 565.19,235.713 565.5,232.5C 565.5,232.167 565.5,231.833 565.5,231.5 Z" />
    </g>
    <g>
        <path style="opacity:1" fill="#a0201f"
            d="M 719.5,231.5 C 734.003,233.005 740.336,241.005 738.5,255.5C 721.64,255.653 715.307,247.653 719.5,231.5 Z" />
    </g>
    <g>
        <path style="opacity:1" fill="#646463"
            d="M 142.5,211.5 C 143.492,218.648 143.825,225.981 143.5,233.5C 162.674,233.17 181.674,233.503 200.5,234.5C 181.167,234.5 161.833,234.5 142.5,234.5C 142.5,227.167 142.5,219.833 142.5,212.5C 142.5,212.167 142.5,211.833 142.5,211.5 Z" />
    </g>
    <g>
        <path style="opacity:0.943" fill="#4c4a4d"
            d="M 448.5,227.5 C 448.738,229.404 449.738,230.738 451.5,231.5C 459.426,240.847 465.426,251.347 469.5,263C 479.86,267.847 490.193,272.681 500.5,277.5C 486.01,278.496 471.343,278.829 456.5,278.5C 448.695,276.232 441.028,273.565 433.5,270.5C 422.096,266.224 410.429,262.391 398.5,259C 394.833,258.333 391.167,258.333 387.5,259C 370.833,270.333 354.167,281.667 337.5,293C 325.596,299.119 313.596,304.952 301.5,310.5C 300.209,310.737 299.209,310.404 298.5,309.5C 303.265,307.618 307.932,305.452 312.5,303C 334.759,288.698 355.759,272.698 375.5,255C 363.113,252.988 350.779,250.321 338.5,247C 333.844,246.335 329.177,245.835 324.5,245.5C 318.5,244.833 312.5,244.167 306.5,243.5C 328.435,239.857 350.435,239.524 372.5,242.5C 377.616,243.806 382.949,244.473 388.5,244.5C 400.539,246.648 412.539,248.982 424.5,251.5C 434.416,253.437 444.249,255.771 454,258.5C 454.5,258.167 455,257.833 455.5,257.5C 449.086,239.122 439.086,223.122 425.5,209.5C 425.833,209.167 426.167,208.833 426.5,208.5C 435.084,213.419 442.417,219.753 448.5,227.5 Z" />
    </g>
    <g>
        <path style="opacity:0.765" fill="#545454"
            d="M 852.5,216.5 C 852.833,216.5 853.167,216.5 853.5,216.5C 853.5,230.5 853.5,244.5 853.5,258.5C 852.833,258.5 852.5,258.833 852.5,259.5C 852.5,259.833 852.5,260.167 852.5,260.5C 851.507,251.682 851.173,242.682 851.5,233.5C 852.11,232.609 852.443,231.609 852.5,230.5C 852.5,225.833 852.5,221.167 852.5,216.5 Z" />
    </g>
    <g>
        <path style="opacity:1" fill="#a02422"
            d="M 756.5,252.5 C 755.337,247.231 755.67,241.898 757.5,236.5C 759.03,234.654 761.03,233.654 763.5,233.5C 763.715,240.865 761.381,247.198 756.5,252.5 Z" />
    </g>
    <g>
        <path style="opacity:1" fill="#8b302f"
            d="M 372.5,242.5 C 378.069,242.376 383.402,243.043 388.5,244.5C 382.949,244.473 377.616,243.806 372.5,242.5 Z" />
    </g>
    <g>
        <path style="opacity:1" fill="#783739"
            d="M 306.5,243.5 C 312.5,244.167 318.5,244.833 324.5,245.5C 317.492,245.666 310.492,245.5 303.5,245C 304.244,243.961 305.244,243.461 306.5,243.5 Z" />
    </g>
    <g>
        <path style="opacity:1" fill="#7c7c7c"
            d="M 200.5,246.5 C 181.674,247.497 162.674,247.83 143.5,247.5C 143.5,255.167 143.5,262.833 143.5,270.5C 139.298,270.817 135.298,270.483 131.5,269.5C 131.833,269.5 132.167,269.5 132.5,269.5C 135.833,269.5 139.167,269.5 142.5,269.5C 142.5,261.833 142.5,254.167 142.5,246.5C 161.833,246.5 181.167,246.5 200.5,246.5 Z" />
    </g>
    <g>
        <path style="opacity:1" fill="#f9efef"
            d="M 275.5,255.5 C 271.04,256.115 267.04,255.115 263.5,252.5C 264.524,251.148 265.524,249.815 266.5,248.5C 272.617,245.681 278.617,245.847 284.5,249C 282.161,252.186 279.161,254.352 275.5,255.5 Z" />
    </g>
    <g>
        <path style="opacity:1" fill="#fbf4f4"
            d="M 300.5,251.5 C 302.202,259.715 299.536,266.882 292.5,273C 289.395,274.868 286.062,276.035 282.5,276.5C 285.804,266.225 291.804,257.892 300.5,251.5 Z" />
    </g>
    <g>
        <path style="opacity:0.817" fill="#9f1e1e"
            d="M 853.5,266.5 C 852.022,266.762 850.689,266.429 849.5,265.5C 850.952,264.06 851.952,262.394 852.5,260.5C 852.5,260.167 852.5,259.833 852.5,259.5C 853.167,259.5 853.5,259.167 853.5,258.5C 858.514,252.994 864.514,251.494 871.5,254C 872.059,254.725 872.392,255.558 872.5,256.5C 868.356,263.741 862.023,267.074 853.5,266.5 Z" />
    </g>
    <g>
        <path style="opacity:0.994" fill="#ac1d1d"
            d="M 433.5,270.5 C 440.68,284.196 447.347,298.196 453.5,312.5C 453.38,313.586 452.713,314.253 451.5,314.5C 435.904,317.299 420.237,319.633 404.5,321.5C 402.897,321.312 401.563,321.812 400.5,323C 417.005,323.828 433.339,323.662 449.5,322.5C 452.939,322.253 456.272,322.586 459.5,323.5C 468.764,344.932 478.43,366.266 488.5,387.5C 480.23,385.246 471.896,383.079 463.5,381C 453.698,380.366 444.031,378.866 434.5,376.5C 433.833,376.833 433.167,377.167 432.5,377.5C 445.061,382.614 457.728,387.447 470.5,392C 479.871,396.019 488.871,400.519 497.5,405.5C 497.5,406.167 497.833,406.5 498.5,406.5C 504.844,420.52 511.178,434.52 517.5,448.5C 501.156,449.995 484.823,452.495 468.5,456C 465.167,456.667 461.833,456.667 458.5,456C 451.885,451.719 445.552,447.053 439.5,442C 426.47,429.304 413.804,416.304 401.5,403C 383.279,387.303 363.613,378.636 342.5,377C 373.173,386.679 396.339,405.513 412,433.5C 419.698,442.693 427.532,451.693 435.5,460.5C 435.557,461.609 435.89,462.609 436.5,463.5C 422.163,463.305 407.829,462.972 393.5,462.5C 390.813,462.664 388.146,462.497 385.5,462C 380.783,449.044 372.45,439.211 360.5,432.5C 360.167,432.667 359.833,432.833 359.5,433C 367.457,440.081 371.791,448.914 372.5,459.5C 369.941,459.802 367.607,459.468 365.5,458.5C 361.7,449.778 357.7,441.112 353.5,432.5C 353.957,431.702 354.624,431.369 355.5,431.5C 359.224,431.95 361.391,430.283 362,426.5C 362.99,422.658 361.823,419.658 358.5,417.5C 355.61,419.043 353.943,421.376 353.5,424.5C 352.698,425.952 352.198,427.618 352,429.5C 346.222,417.244 340.722,404.911 335.5,392.5C 337.644,389.878 338.977,386.878 339.5,383.5C 336.193,382.949 332.86,382.616 329.5,382.5C 322.576,365.98 315.076,349.647 307,333.5C 306.814,330.964 306.314,328.631 305.5,326.5C 304.624,321.536 302.957,316.87 300.5,312.5C 300.833,311.833 301.167,311.167 301.5,310.5C 313.596,304.952 325.596,299.119 337.5,293C 354.167,281.667 370.833,270.333 387.5,259C 391.167,258.333 394.833,258.333 398.5,259C 410.429,262.391 422.096,266.224 433.5,270.5 Z" />
    </g>
    <g>
        <path style="opacity:0.892" fill="#4b4b4d"
            d="M 656.5,224.5 C 658.415,224.216 660.081,224.549 661.5,225.5C 655.647,235.188 648.813,244.188 641,252.5C 640.333,254.5 640.333,256.5 641,258.5C 642.694,265.138 644.194,271.805 645.5,278.5C 638.833,278.5 632.167,278.5 625.5,278.5C 618.767,275.311 611.767,272.811 604.5,271C 592.505,270.5 580.505,270.333 568.5,270.5C 568.279,273.279 568.612,275.946 569.5,278.5C 556.833,278.5 544.167,278.5 531.5,278.5C 532.244,268.179 532.911,257.846 533.5,247.5C 533.618,243.016 532.952,238.682 531.5,234.5C 542.167,234.5 552.833,234.5 563.5,234.5C 563.343,235.873 563.51,237.207 564,238.5C 564.191,236.292 564.691,234.292 565.5,232.5C 565.19,235.713 565.523,238.713 566.5,241.5C 566.962,250.566 567.962,259.566 569.5,268.5C 589.332,261.561 609.332,260.894 629.5,266.5C 629.549,251.736 629.549,237.07 629.5,222.5C 631.158,209.861 634.825,197.861 640.5,186.5C 640.833,187.333 641.167,188.167 641.5,189C 638.799,201.035 637.133,213.202 636.5,225.5C 636.308,232.635 637.142,239.635 639,246.5C 645.167,239.667 651.333,232.833 657.5,226C 656.944,225.617 656.611,225.117 656.5,224.5 Z" />
    </g>
    <g>
        <path style="opacity:1" fill="#9f2624"
            d="M 807.5,286.5 C 807.5,289.167 807.5,291.833 807.5,294.5C 806.041,294.567 804.708,294.234 803.5,293.5C 795.067,287.646 792.733,279.979 796.5,270.5C 797.002,269.479 797.668,269.312 798.5,270C 803.505,274.516 806.505,280.016 807.5,286.5 Z" />
    </g>
    <g>
        <path style="opacity:1" fill="#f8f8f8"
            d="M 158.5,273.5 C 188.971,273.137 203.138,288.137 201,318.5C 195.056,340.067 180.889,349.567 158.5,347C 142.81,342.827 133.643,332.661 131,316.5C 129.121,294.892 138.288,280.559 158.5,273.5 Z" />
    </g>
    <g>
        <path style="opacity:0.945" fill="#464648"
            d="M 570.5,307.5 C 537.833,307.5 505.167,307.5 472.5,307.5C 479.061,304.55 485.394,301.05 491.5,297C 479.772,290.804 468.105,284.638 456.5,278.5C 471.343,278.829 486.01,278.496 500.5,277.5C 509.979,283.075 519.645,288.408 529.5,293.5C 531.243,288.673 531.91,283.673 531.5,278.5C 544.167,278.5 556.833,278.5 569.5,278.5C 569.334,283.511 569.501,288.511 570,293.5C 574.55,285.95 580.717,280.116 588.5,276C 592.821,275.501 597.154,275.334 601.5,275.5C 597.001,291.243 586.668,300.243 570.5,302.5C 570.5,304.167 570.5,305.833 570.5,307.5 Z" />
    </g>
    <g>
        <path style="opacity:1" fill="#232322"
            d="M 159.5,286.5 C 173.88,284.732 184.047,290.398 190,303.5C 192.012,325.154 182.179,335.321 160.5,334C 145.522,328.821 139.688,318.321 143,302.5C 146.413,294.919 151.913,289.586 159.5,286.5 Z" />
    </g>
    <g>
        <path style="opacity:1" fill="#fdf8f8"
            d="M 398.5,288.5 C 413.053,287.77 423.053,294.104 428.5,307.5C 411.368,315.133 397.035,311.633 385.5,297C 386.34,295.233 387.673,293.899 389.5,293C 392.592,291.454 395.592,289.954 398.5,288.5 Z" />
    </g>
    <g>
        <path style="opacity:0.865" fill="#9f1e1e"
            d="M 852.5,307.5 C 850.223,306.916 848.223,305.749 846.5,304C 848.014,301.322 850.014,299.155 852.5,297.5C 853.167,297.5 853.5,297.167 853.5,296.5C 860.023,294.805 866.356,295.305 872.5,298C 873.357,298.689 874.023,299.522 874.5,300.5C 868.211,306.04 860.878,308.374 852.5,307.5 Z" />
    </g>
    <g>
        <path style="opacity:1" fill="#d9b5b4"
            d="M 284.5,297.5 C 279.797,297.437 275.13,297.771 270.5,298.5C 273.017,297.027 275.85,296.36 279,296.5C 281.033,296.506 282.866,296.839 284.5,297.5 Z" />
    </g>
    <g>
        <path style="opacity:1" fill="#f8f2f1"
            d="M 284.5,297.5 C 286.167,297.5 287.833,297.5 289.5,297.5C 290.9,298.1 291.9,299.1 292.5,300.5C 290.315,302.762 287.648,304.262 284.5,305C 279.167,305.667 273.833,305.667 268.5,305C 266.616,304.784 264.949,304.117 263.5,303C 265.551,300.98 267.884,299.48 270.5,298.5C 275.13,297.771 279.797,297.437 284.5,297.5 Z" />
    </g>
    <g>
        <path style="opacity:0.983" fill="#474748"
            d="M 729.5,318.5 C 728.732,317.737 728.232,316.737 728,315.5C 693.402,316.832 658.902,316.832 624.5,315.5C 627.075,314.432 629.242,312.765 631,310.5C 633.138,305.252 634.971,299.919 636.5,294.5C 635.776,287.026 632.109,281.693 625.5,278.5C 632.167,278.5 638.833,278.5 645.5,278.5C 646.268,279.263 646.768,280.263 647,281.5C 656.573,268.963 667.407,257.63 679.5,247.5C 684.518,242.944 689.851,239.111 695.5,236C 685.483,247.199 676.816,259.366 669.5,272.5C 669.833,272.833 670.167,273.167 670.5,273.5C 680.496,272.095 690.496,270.929 700.5,270C 689.545,272.527 678.545,275.194 667.5,278C 666.619,278.708 665.953,279.542 665.5,280.5C 664.833,280.5 664.5,280.833 664.5,281.5C 663.069,282.78 662.402,284.447 662.5,286.5C 661.662,286.842 661.328,287.508 661.5,288.5C 660.662,288.842 660.328,289.508 660.5,290.5C 658.707,292.426 657.707,294.759 657.5,297.5C 656.069,298.78 655.402,300.447 655.5,302.5C 654.596,303.209 654.263,304.209 654.5,305.5C 654.5,305.833 654.5,306.167 654.5,306.5C 653.833,306.5 653.5,306.833 653.5,307.5C 652.566,308.568 652.232,309.901 652.5,311.5C 666.797,310.37 681.131,309.537 695.5,309C 715.585,307.955 734.251,302.288 751.5,292C 750.384,280.276 750.384,268.443 751.5,256.5C 752.34,250.805 753.34,245.139 754.5,239.5C 755.167,238.167 756.167,237.167 757.5,236.5C 755.67,241.898 755.337,247.231 756.5,252.5C 755.425,253.713 754.759,255.213 754.5,257C 753.109,266.586 753.609,276.086 756,285.5C 756.414,285.957 756.914,286.291 757.5,286.5C 761.442,284.062 764.942,281.062 768,277.5C 773.576,270.68 778.909,263.68 784,256.5C 790.439,243.956 796.606,231.289 802.5,218.5C 802.833,218.667 803.167,218.833 803.5,219C 798.109,231.173 793.942,243.673 791,256.5C 802.027,248.839 813.193,242.172 824.5,236.5C 821.339,239.491 818.005,242.325 814.5,245C 803.902,251.214 793.735,258.047 784,265.5C 772.328,288.839 754.494,305.672 730.5,316C 729.748,316.671 729.414,317.504 729.5,318.5 Z M 657.5,297.5 C 657.598,299.553 656.931,301.22 655.5,302.5C 655.402,300.447 656.069,298.78 657.5,297.5 Z M 660.5,290.5 C 660.293,293.241 659.293,295.574 657.5,297.5C 657.707,294.759 658.707,292.426 660.5,290.5 Z M 664.5,281.5 C 664.598,283.553 663.931,285.22 662.5,286.5C 662.402,284.447 663.069,282.78 664.5,281.5 Z" />
    </g>
    <g>
        <path style="opacity:1" fill="#a02422"
            d="M 695.5,276.5 C 704.102,275.536 711.769,277.703 718.5,283C 709.589,288.982 700.589,288.982 691.5,283C 690.833,282 690.167,281 689.5,280C 691.432,278.541 693.432,277.375 695.5,276.5 Z" />
    </g>
    <g>
        <path style="opacity:1" fill="#a02422"
            d="M 692.5,252.5 C 695.167,252.5 697.833,252.5 700.5,252.5C 699.022,261.646 693.688,266.646 684.5,267.5C 684.298,260.9 686.965,255.9 692.5,252.5 Z" />
    </g>
    <g>
        <path style="opacity:1" fill="#9d2524"
            d="M 754.5,239.5 C 753.34,245.139 752.34,250.805 751.5,256.5C 750.5,256.5 749.5,256.5 748.5,256.5C 747.438,249.647 749.438,243.98 754.5,239.5 Z" />
    </g>
    <g>
        <path style="opacity:1" fill="#faf3f3"
            d="M 299.5,312.5 C 299.833,312.5 300.167,312.5 300.5,312.5C 302.957,316.87 304.624,321.536 305.5,326.5C 305.836,332.503 303.836,337.503 299.5,341.5C 298.678,339.861 298.011,338.195 297.5,336.5C 297.114,328.381 297.781,320.381 299.5,312.5 Z" />
    </g>
    <g>
        <path style="opacity:0.973" fill="#424243"
            d="M 789.5,324.5 C 782.303,326.633 774.969,328.466 767.5,330C 758.494,330.4 749.494,330.9 740.5,331.5C 736.122,331.378 731.789,330.878 727.5,330C 722.078,326.956 716.411,324.456 710.5,322.5C 691.034,327.078 671.368,330.578 651.5,333C 648.833,333.667 646.167,334.333 643.5,335C 642.619,335.708 641.953,336.542 641.5,337.5C 627.309,339.262 615.309,345.262 605.5,355.5C 579.672,354.502 553.672,354.169 527.5,354.5C 528.17,344.478 528.17,334.478 527.5,324.5C 521.376,318.608 514.709,313.441 507.5,309C 505.447,308.675 503.447,309.009 501.5,310C 488.478,317.619 474.478,322.119 459.5,323.5C 456.272,322.586 452.939,322.253 449.5,322.5C 434.324,322.829 419.324,322.496 404.5,321.5C 420.237,319.633 435.904,317.299 451.5,314.5C 452.713,314.253 453.38,313.586 453.5,312.5C 460.114,311.85 466.448,310.183 472.5,307.5C 505.167,307.5 537.833,307.5 570.5,307.5C 571.24,321.493 572.073,335.493 573,349.5C 586.58,332.757 603.746,321.424 624.5,315.5C 658.902,316.832 693.402,316.832 728,315.5C 728.232,316.737 728.732,317.737 729.5,318.5C 733.951,319.149 738.284,320.316 742.5,322C 750.833,322.667 759.167,322.667 767.5,322C 775.678,319.581 784.011,317.915 792.5,317C 793.066,316.005 793.733,315.172 794.5,314.5C 794.791,315.649 795.624,316.316 797,316.5C 802.31,315.842 807.143,314.009 811.5,311C 819.593,298.24 829.759,287.407 842,278.5C 842.5,278.667 843,278.833 843.5,279C 834.871,286.752 827.037,295.252 820,304.5C 818.872,306.345 818.372,308.345 818.5,310.5C 824.193,309.488 829.859,308.655 835.5,308C 824.559,311.756 813.892,316.089 803.5,321C 817.809,322.57 832.142,323.903 846.5,325C 834.485,325.25 822.485,325.75 810.5,326.5C 804.463,325.716 798.463,324.716 792.5,323.5C 791.416,323.685 790.416,324.018 789.5,324.5 Z" />
    </g>
    <g>
        <path style="opacity:0.819" fill="#9f1e1d"
            d="M 876.5,317.5 C 881.182,317.338 885.515,318.505 889.5,321C 892.341,324.159 891.674,326.492 887.5,328C 879.905,330.34 872.572,329.673 865.5,326C 864.289,325.107 864.289,324.274 865.5,323.5C 868.839,320.735 872.505,318.735 876.5,317.5 Z" />
    </g>
    <g>
        <path style="opacity:1" fill="#fbf3f3"
            d="M 353.5,318.5 C 359.176,318.334 364.843,318.501 370.5,319C 372.167,320.167 373.833,321.333 375.5,322.5C 368.432,330.022 359.766,332.856 349.5,331C 346.79,329.985 344.457,328.485 342.5,326.5C 345.703,323.078 349.37,320.411 353.5,318.5 Z" />
    </g>
    <g>
        <path style="opacity:1" fill="#f9f3f3"
            d="M 280.5,320.5 C 281.5,320.5 282.5,320.5 283.5,320.5C 283.5,321.833 283.5,323.167 283.5,324.5C 281.625,331.466 276.959,335.132 269.5,335.5C 270.003,328.154 273.67,323.154 280.5,320.5 Z" />
    </g>
    <g>
        <path style="opacity:1" fill="#be8381"
            d="M 280.5,320.5 C 281.568,319.566 282.901,319.232 284.5,319.5C 284.784,321.415 284.451,323.081 283.5,324.5C 283.5,323.167 283.5,321.833 283.5,320.5C 282.5,320.5 281.5,320.5 280.5,320.5 Z" />
    </g>
    <g>
        <path style="opacity:1" fill="#7c2d2e"
            d="M 404.5,321.5 C 419.324,322.496 434.324,322.829 449.5,322.5C 433.339,323.662 417.005,323.828 400.5,323C 401.563,321.812 402.897,321.312 404.5,321.5 Z" />
    </g>
    <g>
        <path style="opacity:0.996" fill="#979696"
            d="M 789.5,324.5 C 776.075,351.685 762.908,379.018 750,406.5C 737.964,423.236 727.464,440.902 718.5,459.5C 712.11,470.285 708.61,481.952 708,494.5C 706.059,498.722 703.892,502.722 701.5,506.5C 700.833,506.5 700.5,506.833 700.5,507.5C 699.833,507.5 699.5,507.833 699.5,508.5C 691.088,514.185 682.088,518.519 672.5,521.5C 667.751,522.35 663.084,523.516 658.5,525C 651.508,525.5 644.508,525.666 637.5,525.5C 638.289,520.464 639.289,515.464 640.5,510.5C 643.147,501.828 644.647,492.828 645,483.5C 645.139,480.555 646.306,478.221 648.5,476.5C 662.739,485.944 675.239,483.944 686,470.5C 686.749,469.365 686.583,468.365 685.5,467.5C 678.527,462.673 670.861,460.84 662.5,462C 659.138,463.343 656.138,465.176 653.5,467.5C 654.167,465.5 654.833,463.5 655.5,461.5C 667.774,438.516 677.607,414.516 685,389.5C 673.087,413.671 659.921,437.004 645.5,459.5C 644.343,461.138 643.176,462.804 642,464.5C 641.256,462.1 640.423,459.767 639.5,457.5C 634.824,441.666 627.324,427.333 617,414.5C 617.667,417.167 618.333,419.833 619,422.5C 616.63,418.403 613.797,414.736 610.5,411.5C 620.829,386.85 631.163,362.183 641.5,337.5C 641.953,336.542 642.619,335.708 643.5,335C 646.167,334.333 648.833,333.667 651.5,333C 671.368,330.578 691.034,327.078 710.5,322.5C 716.411,324.456 722.078,326.956 727.5,330C 731.789,330.878 736.122,331.378 740.5,331.5C 749.494,330.9 758.494,330.4 767.5,330C 774.969,328.466 782.303,326.633 789.5,324.5 Z" />
    </g>
    <g>
        <path style="opacity:1" fill="#cf8988"
            d="M 299.5,312.5 C 297.781,320.381 297.114,328.381 297.5,336.5C 296.347,330.681 296.181,324.681 297,318.5C 297.566,316.277 298.4,314.277 299.5,312.5 Z" />
    </g>
    <g>
        <path style="opacity:0.835" fill="#9e1e1e"
            d="M 853.5,332.5 C 859.763,335.761 864.763,340.428 868.5,346.5C 866.811,348.349 864.644,349.349 862,349.5C 858.934,348.979 856.101,347.979 853.5,346.5C 853.672,345.508 853.338,344.842 852.5,344.5C 849.524,340.518 846.524,336.518 843.5,332.5C 846.837,331.334 850.17,331.334 853.5,332.5 Z" />
    </g>
    <g>
        <path style="opacity:1" fill="#fdf9f9"
            d="M 414.5,334.5 C 411.853,341.182 406.853,345.015 399.5,346C 380.608,346.793 379.942,342.96 397.5,334.5C 401.454,333.628 405.454,332.962 409.5,332.5C 411.64,332.556 413.306,333.223 414.5,334.5 Z" />
    </g>
    <g>
        <path style="opacity:1" fill="#e6b4b4"
            d="M 414.5,334.5 C 413.306,333.223 411.64,332.556 409.5,332.5C 405.454,332.962 401.454,333.628 397.5,334.5C 403.085,331.857 409.085,330.857 415.5,331.5C 415.737,332.791 415.404,333.791 414.5,334.5 Z" />
    </g>
    <g>
        <path style="opacity:1" fill="#a02321"
            d="M 702.5,337.5 C 705.119,337.232 707.619,337.565 710,338.5C 710.182,352.65 703.349,361.15 689.5,364C 685.176,350.815 689.51,341.982 702.5,337.5 Z" />
    </g>
    <g>
        <path style="opacity:0.982" fill="#891e1c"
            d="M 1832.5,338.5 C 1832.5,472.5 1832.5,606.5 1832.5,740.5C 1784.83,740.5 1737.17,740.5 1689.5,740.5C 1689.5,606.5 1689.5,472.5 1689.5,338.5C 1737.17,337.167 1784.83,337.167 1832.5,338.5 Z" />
    </g>
    <g>
        <path style="opacity:0.989" fill="#393938"
            d="M 1213.5,338.5 C 1288.5,338.5 1363.5,338.5 1438.5,338.5C 1434.69,342.135 1430.69,345.635 1426.5,349C 1321.98,428.697 1217.65,508.53 1113.5,588.5C 1112.83,588.5 1112.17,588.5 1111.5,588.5C 1042,588.833 972.665,588.499 903.5,587.5C 1005.34,505.834 1107.34,424.334 1209.5,343C 1211.04,341.629 1212.37,340.129 1213.5,338.5 Z" />
    </g>
    <g>
        <path style="opacity:0.765" fill="#545353"
            d="M 852.5,344.5 C 853.338,344.842 853.672,345.508 853.5,346.5C 853.5,475.167 853.5,603.833 853.5,732.5C 802.833,732.5 752.167,732.5 701.5,732.5C 701.5,677.167 701.5,621.833 701.5,566.5C 701.5,565.833 701.833,565.5 702.5,565.5C 702.5,620.5 702.5,675.5 702.5,730.5C 752.167,730.5 801.833,730.5 851.5,730.5C 851.167,601.666 851.5,472.999 852.5,344.5 Z" />
    </g>
    <g>
        <path style="opacity:1" fill="#faf1f0"
            d="M 335.5,354.5 C 338.838,355.423 341.338,357.423 343,360.5C 344.631,364.688 345.464,369.021 345.5,373.5C 337.301,371.961 332.967,366.961 332.5,358.5C 332.5,357.167 332.5,355.833 332.5,354.5C 333.5,354.5 334.5,354.5 335.5,354.5 Z" />
    </g>
    <g>
        <path style="opacity:1" fill="#dc9c9c"
            d="M 335.5,354.5 C 334.5,354.5 333.5,354.5 332.5,354.5C 332.5,355.833 332.5,357.167 332.5,358.5C 331.549,357.081 331.216,355.415 331.5,353.5C 333.099,353.232 334.432,353.566 335.5,354.5 Z" />
    </g>
    <g>
        <path style="opacity:1" fill="#fbf2f2"
            d="M 431.5,354.5 C 444.538,353.539 451.871,359.539 453.5,372.5C 449.489,372.498 445.822,371.332 442.5,369C 437.951,364.687 434.284,359.854 431.5,354.5 Z" />
    </g>
    <g>
        <path style="opacity:1" fill="#fafafa"
            d="M 199.5,356.5 C 200.485,360.634 200.818,364.968 200.5,369.5C 194.181,374.304 187.681,378.97 181,383.5C 180.501,389.491 180.334,395.491 180.5,401.5C 186.645,402.49 192.978,402.823 199.5,402.5C 199.5,406.167 199.5,409.833 199.5,413.5C 177.167,413.5 154.833,413.5 132.5,413.5C 132.5,401.833 132.5,390.167 132.5,378.5C 136.247,360.926 146.914,354.093 164.5,358C 170.584,360.584 175.25,364.75 178.5,370.5C 185.701,366.071 192.701,361.405 199.5,356.5 Z" />
    </g>
    <g>
        <path style="opacity:1" fill="#5a5a59"
            d="M 199.5,356.5 C 199.56,355.957 199.893,355.624 200.5,355.5C 201.812,360.318 201.812,364.985 200.5,369.5C 200.818,364.968 200.485,360.634 199.5,356.5 Z" />
    </g>
    <g>
        <path style="opacity:1" fill="#a02321"
            d="M 746.5,356.5 C 749.642,356.799 751.809,358.466 753,361.5C 756.49,369.298 756.157,376.965 752,384.5C 750.938,385.899 749.605,386.899 748,387.5C 744.449,383.064 741.949,378.064 740.5,372.5C 741.529,366.739 743.529,361.406 746.5,356.5 Z" />
    </g>
    <g>
        <path style="opacity:1" fill="#a0201f"
            d="M 659.5,360.5 C 672.873,364.23 677.873,372.896 674.5,386.5C 666.347,386.213 661.18,381.88 659,373.5C 658.294,369.113 658.46,364.78 659.5,360.5 Z" />
    </g>
    <g>
        <path style="opacity:1" fill="#faf4f4"
            d="M 296.5,363.5 C 304.931,361.557 311.264,364.223 315.5,371.5C 307.728,375.007 300.895,373.674 295,367.5C 294.516,365.807 295.016,364.473 296.5,363.5 Z" />
    </g>
    <g>
        <path style="opacity:0.969" fill="#3b3b3b"
            d="M 527.5,354.5 C 553.672,354.169 579.672,354.502 605.5,355.5C 593.521,371.138 586.188,388.805 583.5,408.5C 556.736,407.173 530.069,407.173 503.5,408.5C 501.833,407.833 500.167,407.167 498.5,406.5C 497.833,406.5 497.5,406.167 497.5,405.5C 488.871,400.519 479.871,396.019 470.5,392C 457.728,387.447 445.061,382.614 432.5,377.5C 433.167,377.167 433.833,376.833 434.5,376.5C 444.031,378.866 453.698,380.366 463.5,381C 471.896,383.079 480.23,385.246 488.5,387.5C 500.393,392.03 512.226,396.697 524,401.5C 525.045,385.766 526.212,370.099 527.5,354.5 Z" />
    </g>
    <g>
        <path style="opacity:1" fill="#f9ecec"
            d="M 395.5,366.5 C 402.445,365.471 408.612,367.137 414,371.5C 415.009,373.025 415.509,374.692 415.5,376.5C 407.781,377.963 400.115,377.796 392.5,376C 390.668,375.252 389.001,374.252 387.5,373C 390.355,370.969 393.022,368.803 395.5,366.5 Z" />
    </g>
    <g>
        <path style="opacity:1" fill="#232322"
            d="M 169.5,382.5 C 169.5,388.5 169.5,394.5 169.5,400.5C 160.833,400.5 152.167,400.5 143.5,400.5C 143.5,393.833 143.5,387.167 143.5,380.5C 144.972,373.866 149.139,370.199 156,369.5C 164.29,369.957 168.79,374.291 169.5,382.5 Z" />
    </g>
    <g>
        <path style="opacity:1" fill="#a02220"
            d="M 634.5,374.5 C 637.238,373.965 639.072,374.965 640,377.5C 644.407,392.28 640.407,404.28 628,413.5C 619.682,402.877 619.348,391.877 627,380.5C 629.688,378.636 632.188,376.636 634.5,374.5 Z" />
    </g>
    <g>
        <path style="opacity:1" fill="#faf3f3"
            d="M 329.5,382.5 C 332.86,382.616 336.193,382.949 339.5,383.5C 338.977,386.878 337.644,389.878 335.5,392.5C 329.656,396.427 323.322,397.427 316.5,395.5C 315.386,394.277 315.219,392.944 316,391.5C 319.101,386.368 323.601,383.368 329.5,382.5 Z" />
    </g>
    <g>
        <path style="opacity:1" fill="#a02221"
            d="M 701.5,383.5 C 708.055,382.634 714.055,383.967 719.5,387.5C 713.791,399.362 704.791,403.528 692.5,400C 686.874,397.513 686.208,394.18 690.5,390C 694.096,387.539 697.763,385.373 701.5,383.5 Z" />
    </g>
    <g>
        <path style="opacity:1" fill="#fcf5f5"
            d="M 432.5,390.5 C 436.167,390.5 439.833,390.5 443.5,390.5C 443.792,396.377 441.125,400.21 435.5,402C 431.594,403.434 427.594,403.767 423.5,403C 422.446,401.612 422.28,400.112 423,398.5C 425.775,395.22 428.942,392.554 432.5,390.5 Z" />
    </g>
    <g>
        <path style="opacity:1" fill="#f8f1f1"
            d="M 266.5,392.5 C 274.72,394.102 277.72,399.102 275.5,407.5C 266.314,406.3 263.314,401.3 266.5,392.5 Z" />
    </g>
    <g>
        <path style="opacity:1" fill="#565655"
            d="M 143.5,380.5 C 143.5,387.167 143.5,393.833 143.5,400.5C 152.167,400.5 160.833,400.5 169.5,400.5C 169.5,394.5 169.5,388.5 169.5,382.5C 170.49,388.645 170.823,394.978 170.5,401.5C 161.167,401.5 151.833,401.5 142.5,401.5C 142.175,394.313 142.509,387.313 143.5,380.5 Z" />
    </g>
    <g>
        <path style="opacity:0.971" fill="#363534"
            d="M 517.5,448.5 C 522.719,450.557 524.052,448.89 521.5,443.5C 521.982,436.261 522.649,429.094 523.5,422C 516.908,417.215 510.242,412.715 503.5,408.5C 530.069,407.173 556.736,407.173 583.5,408.5C 582.588,409.738 582.421,411.072 583,412.5C 584.214,410.951 585.714,409.785 587.5,409C 595.453,407.119 603.119,407.952 610.5,411.5C 613.797,414.736 616.63,418.403 619,422.5C 618.333,419.833 617.667,417.167 617,414.5C 627.324,427.333 634.824,441.666 639.5,457.5C 638.596,458.209 638.263,459.209 638.5,460.5C 635.789,460.815 633.456,460.148 631.5,458.5C 630.073,448.147 627.073,438.147 622.5,428.5C 621.667,428.167 620.833,427.833 620,427.5C 614.016,428.787 608.182,430.12 602.5,431.5C 592.876,429.053 585.709,423.387 581,414.5C 578.524,417.948 577.357,421.781 577.5,426C 578.543,437.481 579.21,448.981 579.5,460.5C 531.5,460.5 483.5,460.5 435.5,460.5C 427.532,451.693 419.698,442.693 412,433.5C 396.339,405.513 373.173,386.679 342.5,377C 363.613,378.636 383.279,387.303 401.5,403C 413.804,416.304 426.47,429.304 439.5,442C 445.552,447.053 451.885,451.719 458.5,456C 461.833,456.667 465.167,456.667 468.5,456C 484.823,452.495 501.156,449.995 517.5,448.5 Z" />
    </g>
    <g>
        <path style="opacity:1" fill="#f6eded"
            d="M 292.5,408.5 C 298.179,412.909 299.012,418.242 295,424.5C 290.134,424.976 287.634,422.476 287.5,417C 287.667,415.833 287.833,414.667 288,413.5C 289.707,411.963 291.207,410.296 292.5,408.5 Z" />
    </g>
    <g>
        <path style="opacity:1" fill="#fcf6f6"
            d="M 480.5,411.5 C 483.777,411.216 486.943,411.549 490,412.5C 490.841,429.487 482.675,437.154 465.5,435.5C 463.458,422.89 468.458,414.89 480.5,411.5 Z" />
    </g>
    <g>
        <path style="opacity:1" fill="#cccccc"
            d="M 132.5,378.5 C 132.5,390.167 132.5,401.833 132.5,413.5C 154.833,413.5 177.167,413.5 199.5,413.5C 199.5,409.833 199.5,406.167 199.5,402.5C 192.978,402.823 186.645,402.49 180.5,401.5C 187.167,401.5 193.833,401.5 200.5,401.5C 200.5,405.833 200.5,410.167 200.5,414.5C 177.5,414.5 154.5,414.5 131.5,414.5C 131.172,402.322 131.505,390.322 132.5,378.5 Z" />
    </g>
    <g>
        <path style="opacity:1" fill="#373736"
            d="M 655.5,461.5 C 652.275,460.763 648.941,460.097 645.5,459.5C 659.921,437.004 673.087,413.671 685,389.5C 677.607,414.516 667.774,438.516 655.5,461.5 Z" />
    </g>
    <g>
        <path style="opacity:1" fill="#f6edec"
            d="M 327.5,415.5 C 334.48,416.139 339.146,419.806 341.5,426.5C 331.845,429.517 326.178,426.183 324.5,416.5C 325.791,416.737 326.791,416.404 327.5,415.5 Z" />
    </g>
    <g>
        <path style="opacity:1" fill="#fbf2f2"
            d="M 355.5,431.5 C 353.832,429.521 353.166,427.188 353.5,424.5C 353.943,421.376 355.61,419.043 358.5,417.5C 361.823,419.658 362.99,422.658 362,426.5C 361.391,430.283 359.224,431.95 355.5,431.5 Z" />
    </g>
    <g>
        <path style="opacity:1" fill="#3a3938"
            d="M 851.5,233.5 C 851.173,242.682 851.507,251.682 852.5,260.5C 851.952,262.394 850.952,264.06 849.5,265.5C 850.689,266.429 852.022,266.762 853.5,266.5C 853.5,276.5 853.5,286.5 853.5,296.5C 852.833,296.5 852.5,296.833 852.5,297.5C 850.014,299.155 848.014,301.322 846.5,304C 848.223,305.749 850.223,306.916 852.5,307.5C 853.469,315.748 853.802,324.082 853.5,332.5C 850.17,331.334 846.837,331.334 843.5,332.5C 846.524,336.518 849.524,340.518 852.5,344.5C 851.5,472.999 851.167,601.666 851.5,730.5C 801.833,730.5 752.167,730.5 702.5,730.5C 702.5,675.5 702.5,620.5 702.5,565.5C 709.403,563.691 716.403,562.358 723.5,561.5C 728.364,577.095 738.364,581.595 753.5,575C 755.211,573.867 755.711,572.367 755,570.5C 751.71,565.281 747.21,561.615 741.5,559.5C 739.052,558.527 736.385,558.194 733.5,558.5C 743.843,554.38 754.177,550.046 764.5,545.5C 764.511,547.017 765.177,548.184 766.5,549C 774.969,553.751 783.302,553.584 791.5,548.5C 789.707,545.434 787.04,543.6 783.5,543C 780.183,542.502 776.85,542.335 773.5,542.5C 775.578,539.949 778.244,538.116 781.5,537C 782.706,535.982 782.373,535.482 780.5,535.5C 759.257,542.654 737.423,546.321 715,546.5C 710.114,546.493 705.614,545.826 701.5,544.5C 701.5,538.833 701.5,533.167 701.5,527.5C 701.81,525.856 702.81,524.856 704.5,524.5C 715.482,517.998 725.816,510.498 735.5,502C 747.032,491.3 758.365,480.467 769.5,469.5C 769.297,471.39 769.963,472.89 771.5,474C 782.789,483.26 795.123,484.926 808.5,479C 808.683,472.402 805.683,467.402 799.5,464C 795.346,463.337 791.346,462.171 787.5,460.5C 784.58,461.586 781.58,462.252 778.5,462.5C 774.623,460.172 770.457,459.838 766,461.5C 753.92,470.568 742.086,480.068 730.5,490C 726.99,492.182 723.49,494.349 720,496.5C 718.249,496.172 718.249,495.505 720,494.5C 720.973,482.967 723.473,471.801 727.5,461C 724.413,460.741 721.413,460.241 718.5,459.5C 727.464,440.902 737.964,423.236 750,406.5C 762.908,379.018 776.075,351.685 789.5,324.5C 790.416,324.018 791.416,323.685 792.5,323.5C 798.463,324.716 804.463,325.716 810.5,326.5C 822.485,325.75 834.485,325.25 846.5,325C 832.142,323.903 817.809,322.57 803.5,321C 813.892,316.089 824.559,311.756 835.5,308C 829.859,308.655 824.193,309.488 818.5,310.5C 818.372,308.345 818.872,306.345 820,304.5C 827.037,295.252 834.871,286.752 843.5,279C 843,278.833 842.5,278.667 842,278.5C 829.759,287.407 819.593,298.24 811.5,311C 807.143,314.009 802.31,315.842 797,316.5C 795.624,316.316 794.791,315.649 794.5,314.5C 797.782,307.605 800.782,300.605 803.5,293.5C 804.708,294.234 806.041,294.567 807.5,294.5C 807.5,291.833 807.5,289.167 807.5,286.5C 816.051,269.4 824.051,252.067 831.5,234.5C 838.351,238.683 845.017,238.35 851.5,233.5 Z" />
    </g>
    <g>
        <path style="opacity:1" fill="#9e1e1e"
            d="M 759.5,411.5 C 764.167,411.5 768.833,411.5 773.5,411.5C 771.452,425.718 763.285,433.051 749,433.5C 746.5,433.333 744,433.167 741.5,433C 739.842,432.275 739.342,431.108 740,429.5C 744.815,421.512 751.315,415.512 759.5,411.5 Z" />
    </g>
    <g>
        <path style="opacity:1" fill="#9e1e1e"
            d="M 840.5,385.5 C 842.527,385.338 844.527,385.505 846.5,386C 847.578,386.674 848.245,387.674 848.5,389C 846.856,402.812 839.189,410.312 825.5,411.5C 823.693,402.872 826.026,395.705 832.5,390C 835.391,388.726 838.058,387.226 840.5,385.5 Z" />
    </g>
    <g>
        <path style="opacity:1" fill="#9d1f1e"
            d="M 781.5,374.5 C 788.722,373.594 795.389,375.094 801.5,379C 803.576,380.884 803.91,383.051 802.5,385.5C 799.919,388.248 796.919,390.414 793.5,392C 788.167,392.667 782.833,392.667 777.5,392C 774.204,390.53 771.537,388.363 769.5,385.5C 772.242,380.423 776.242,376.757 781.5,374.5 Z" />
    </g>
    <g>
        <path style="opacity:1" fill="#9c1f1f"
            d="M 791.5,348.5 C 793.734,348.38 795.901,348.713 798,349.5C 799.257,349.85 799.591,350.517 799,351.5C 795.833,354.667 792.667,357.833 789.5,361C 785.284,362.684 780.951,363.851 776.5,364.5C 776.773,359.788 778.773,355.955 782.5,353C 785.592,351.454 788.592,349.954 791.5,348.5 Z" />
    </g>
    <g>
        <path style="opacity:1" fill="#9d1f1e"
            d="M 812.5,330.5 C 821.85,331.037 827.684,335.704 830,344.5C 819.377,346.06 813.544,341.393 812.5,330.5 Z" />
    </g>
    <g>
        <path style="opacity:1" fill="#9d1e1e"
            d="M 831.5,253.5 C 832.5,253.5 833.5,253.5 834.5,253.5C 835.459,263.911 831.793,272.244 823.5,278.5C 820.22,268.102 822.887,259.768 831.5,253.5 Z" />
    </g>
    <g>
        <path style="opacity:1" fill="#f8f8f8"
            d="M 200.5,423.5 C 200.774,428.263 200.441,432.93 199.5,437.5C 194.484,439.007 189.65,441.007 185,443.5C 184.333,454.833 184.333,466.167 185,477.5C 190,479.833 195,482.167 200,484.5C 200.828,488.871 200.661,493.205 199.5,497.5C 177.207,487.356 154.874,477.189 132.5,467C 131.2,462.55 131.2,458.05 132.5,453.5C 155.228,443.495 177.895,433.495 200.5,423.5 Z" />
    </g>
    <g>
        <path style="opacity:1" fill="#575756"
            d="M 200.5,423.5 C 201.163,425.641 201.497,427.975 201.5,430.5C 201.471,433.269 200.805,435.603 199.5,437.5C 200.441,432.93 200.774,428.263 200.5,423.5 Z" />
    </g>
    <g>
        <path style="opacity:1" fill="#f8f2f2"
            d="M 270.5,423.5 C 278.88,423.383 283.047,427.383 283,435.5C 273.875,440.695 267.708,438.195 264.5,428C 265.725,425.379 267.725,423.879 270.5,423.5 Z" />
    </g>
    <g>
        <path style="opacity:1" fill="#a02120"
            d="M 687.5,427.5 C 695.254,426.677 702.087,428.677 708,433.5C 710.982,439.712 711.149,445.879 708.5,452C 702.901,451.282 698.068,448.782 694,444.5C 690.743,439.227 688.577,433.561 687.5,427.5 Z" />
    </g>
    <g>
        <path style="opacity:0.988" fill="#979696"
            d="M 631.5,458.5 C 633.87,481.351 628.87,502.351 616.5,521.5C 614.4,523.498 612.4,525.665 610.5,528C 601.312,530.394 592.479,533.561 584,537.5C 583.536,536.906 583.369,536.239 583.5,535.5C 582.722,519.49 581.722,503.49 580.5,487.5C 580.503,484.645 580.836,481.978 581.5,479.5C 589.263,463.892 596.263,447.892 602.5,431.5C 608.182,430.12 614.016,428.787 620,427.5C 620.833,427.833 621.667,428.167 622.5,428.5C 627.073,438.147 630.073,448.147 631.5,458.5 Z" />
    </g>
    <g>
        <path style="opacity:1" fill="#9d1f1e"
            d="M 812.5,435.5 C 821.847,433.423 828.347,436.756 832,445.5C 832.667,447.5 832.667,449.5 832,451.5C 819.886,456.847 811.386,453.514 806.5,441.5C 807.546,438.453 809.546,436.453 812.5,435.5 Z" />
    </g>
    <g>
        <path style="opacity:1" fill="#c7c7c6"
            d="M 173.5,448.5 C 173.56,447.957 173.893,447.624 174.5,447.5C 175.498,456.141 175.831,464.808 175.5,473.5C 174.209,473.737 173.209,473.404 172.5,472.5C 173.824,468.893 174.491,464.893 174.5,460.5C 174.499,456.319 174.166,452.319 173.5,448.5 Z" />
    </g>
    <g>
        <path style="opacity:1" fill="#f8f2f1"
            d="M 286.5,447.5 C 291.067,447.521 294.901,449.188 298,452.5C 298.667,453.167 298.667,453.833 298,454.5C 292.644,458.771 287.644,458.437 283,453.5C 282.506,451.866 282.34,450.199 282.5,448.5C 284.099,448.768 285.432,448.434 286.5,447.5 Z" />
    </g>
    <g>
        <path style="opacity:1" fill="#262625"
            d="M 173.5,448.5 C 174.166,452.319 174.499,456.319 174.5,460.5C 174.491,464.893 173.824,468.893 172.5,472.5C 163.337,468.749 154.337,464.749 145.5,460.5C 154.654,455.919 163.988,451.919 173.5,448.5 Z" />
    </g>
    <g>
        <path style="opacity:1" fill="#303030"
            d="M 639.5,457.5 C 640.423,459.767 641.256,462.1 642,464.5C 643.176,462.804 644.343,461.138 645.5,459.5C 648.941,460.097 652.275,460.763 655.5,461.5C 654.833,463.5 654.167,465.5 653.5,467.5C 650.558,469.779 648.891,472.779 648.5,476.5C 646.306,478.221 645.139,480.555 645,483.5C 644.647,492.828 643.147,501.828 640.5,510.5C 638.204,513.855 636.87,518.188 636.5,523.5C 629.91,523.189 623.41,523.522 617,524.5C 617.109,523.231 616.942,522.231 616.5,521.5C 628.87,502.351 633.87,481.351 631.5,458.5C 633.456,460.148 635.789,460.815 638.5,460.5C 638.263,459.209 638.596,458.209 639.5,457.5 Z" />
    </g>
    <g>
        <path style="opacity:0.998" fill="#302e2e"
            d="M 365.5,458.5 C 367.607,459.468 369.941,459.802 372.5,459.5C 371.791,448.914 367.457,440.081 359.5,433C 359.833,432.833 360.167,432.667 360.5,432.5C 372.45,439.211 380.783,449.044 385.5,462C 388.146,462.497 390.813,462.664 393.5,462.5C 407.81,464.397 422.143,464.73 436.5,463.5C 435.89,462.609 435.557,461.609 435.5,460.5C 483.5,460.5 531.5,460.5 579.5,460.5C 580.126,466.866 580.793,473.199 581.5,479.5C 580.836,481.978 580.503,484.645 580.5,487.5C 581.722,503.49 582.722,519.49 583.5,535.5C 582.011,531.764 581.344,527.764 581.5,523.5C 560.091,523.822 538.758,523.488 517.5,522.5C 517.5,520.167 517.5,517.833 517.5,515.5C 518.884,510.056 519.55,504.389 519.5,498.5C 519.375,492.797 519.708,487.13 520.5,481.5C 512.189,480.501 503.856,480.335 495.5,481C 489.531,485.245 484.031,490.078 479,495.5C 472.205,508.721 467.705,522.721 465.5,537.5C 463.065,541.799 461.398,546.466 460.5,551.5C 455.841,562.013 449.341,571.346 441,579.5C 446.299,571.568 450.633,562.902 454,553.5C 456.874,540.924 458.874,528.257 460,515.5C 445.402,531.285 429.235,544.952 411.5,556.5C 406.5,558.5 401.5,560.5 396.5,562.5C 395.85,562.196 395.183,561.863 394.5,561.5C 385.833,564.167 377.166,564.167 368.5,561.5C 375.846,560.749 383.18,559.916 390.5,559C 393.31,558.993 395.31,557.826 396.5,555.5C 400.655,554.258 404.322,552.258 407.5,549.5C 409.308,549.509 410.975,549.009 412.5,548C 418.302,543.2 423.802,538.033 429,532.5C 442.075,516.014 454.909,499.347 467.5,482.5C 466.833,482.167 466.167,481.833 465.5,481.5C 449.916,483.617 434.249,484.783 418.5,485C 406.562,488.251 395.228,492.751 384.5,498.5C 375.998,501.571 367.331,504.404 358.5,507C 347.858,508.383 337.192,509.05 326.5,509C 346.403,506.87 364.403,500.036 380.5,488.5C 385.745,485.925 390.745,482.925 395.5,479.5C 387.964,476.993 380.297,474.993 372.5,473.5C 356.911,468.359 341.578,462.526 326.5,456C 316.051,447.719 306.384,438.552 297.5,428.5C 298.002,427.479 298.668,427.312 299.5,428C 318.056,445.443 340.056,455.609 365.5,458.5 Z" />
    </g>
    <g>
        <path style="opacity:1" fill="#faf5f5"
            d="M 335.5,435.5 C 341.278,434.191 344.778,436.191 346,441.5C 342.912,444.097 339.412,444.931 335.5,444C 331.69,440.89 331.69,438.057 335.5,435.5 Z" />
    </g>
    <g>
        <path style="opacity:1" fill="#2f2f2f"
            d="M 718.5,459.5 C 721.413,460.241 724.413,460.741 727.5,461C 723.473,471.801 720.973,482.967 720,494.5C 718.249,495.505 718.249,496.172 720,496.5C 723.49,494.349 726.99,492.182 730.5,490C 742.086,480.068 753.92,470.568 766,461.5C 770.457,459.838 774.623,460.172 778.5,462.5C 775.214,464.451 772.214,466.785 769.5,469.5C 758.365,480.467 747.032,491.3 735.5,502C 725.816,510.498 715.482,517.998 704.5,524.5C 693.674,523.67 682.674,523.17 671.5,523C 672.5,522.667 673.5,522.333 674.5,522C 673.906,521.536 673.239,521.369 672.5,521.5C 682.088,518.519 691.088,514.185 699.5,508.5C 700.167,508.5 700.5,508.167 700.5,507.5C 701.167,507.5 701.5,507.167 701.5,506.5C 703.892,502.722 706.059,498.722 708,494.5C 708.61,481.952 712.11,470.285 718.5,459.5 Z" />
    </g>
    <g>
        <path style="opacity:1" fill="#9f201f"
            d="M 648.5,476.5 C 648.891,472.779 650.558,469.779 653.5,467.5C 656.138,465.176 659.138,463.343 662.5,462C 670.861,460.84 678.527,462.673 685.5,467.5C 686.583,468.365 686.749,469.365 686,470.5C 675.239,483.944 662.739,485.944 648.5,476.5 Z" />
    </g>
    <g>
        <path style="opacity:1" fill="#9e1e1e"
            d="M 769.5,469.5 C 772.214,466.785 775.214,464.451 778.5,462.5C 781.58,462.252 784.58,461.586 787.5,460.5C 791.346,462.171 795.346,463.337 799.5,464C 805.683,467.402 808.683,472.402 808.5,479C 795.123,484.926 782.789,483.26 771.5,474C 769.963,472.89 769.297,471.39 769.5,469.5 Z" />
    </g>
    <g>
        <path style="opacity:1" fill="#672828"
            d="M 393.5,462.5 C 407.829,462.972 422.163,463.305 436.5,463.5C 422.143,464.73 407.81,464.397 393.5,462.5 Z" />
    </g>
    <g>
        <path style="opacity:1" fill="#aa1c1d"
            d="M 372.5,473.5 C 380.297,474.993 387.964,476.993 395.5,479.5C 390.745,482.925 385.745,485.925 380.5,488.5C 377.595,483.693 374.928,478.693 372.5,473.5 Z" />
    </g>
    <g>
        <path style="opacity:0.988" fill="#ac1c1d"
            d="M 519.5,498.5 C 518.116,503.944 517.45,509.611 517.5,515.5C 517.5,517.833 517.5,520.167 517.5,522.5C 514.708,546.086 512.375,569.753 510.5,593.5C 509.087,605.8 508.087,618.134 507.5,630.5C 506.194,635.616 505.527,640.949 505.5,646.5C 502.97,677.339 499.97,708.006 496.5,738.5C 467.636,678.105 439.303,617.438 411.5,556.5C 429.235,544.952 445.402,531.285 460,515.5C 458.874,528.257 456.874,540.924 454,553.5C 450.633,562.902 446.299,571.568 441,579.5C 449.341,571.346 455.841,562.013 460.5,551.5C 462.045,555.637 463.878,559.637 466,563.5C 470.761,554.717 470.594,546.05 465.5,537.5C 467.705,522.721 472.205,508.721 479,495.5C 484.031,490.078 489.531,485.245 495.5,481C 503.856,480.335 512.189,480.501 520.5,481.5C 519.708,487.13 519.375,492.797 519.5,498.5 Z" />
    </g>
    <g>
        <path style="opacity:0.991" fill="#ac1c1d"
            d="M 407.5,549.5 C 403.39,540.282 399.056,531.282 394.5,522.5C 394.5,521.5 394.5,520.5 394.5,519.5C 403.464,521.841 412.464,522.008 421.5,520C 412.429,512.484 402.095,509.984 390.5,512.5C 389.033,507.571 387.033,502.904 384.5,498.5C 395.228,492.751 406.562,488.251 418.5,485C 434.249,484.783 449.916,483.617 465.5,481.5C 466.167,481.833 466.833,482.167 467.5,482.5C 454.909,499.347 442.075,516.014 429,532.5C 423.802,538.033 418.302,543.2 412.5,548C 410.975,549.009 409.308,549.509 407.5,549.5 Z" />
    </g>
    <g>
        <path style="opacity:1" fill="#f8f1f0"
            d="M 301.5,489.5 C 310.422,488.711 317.255,492.045 322,499.5C 323.009,501.025 323.509,502.692 323.5,504.5C 313.089,505.198 304.589,501.532 298,493.5C 297.517,492.552 297.351,491.552 297.5,490.5C 299.099,490.768 300.432,490.434 301.5,489.5 Z" />
    </g>
    <g>
        <path style="opacity:1" fill="#fbfbfb"
            d="M 200.5,500.5 C 200.5,519.833 200.5,539.167 200.5,558.5C 196.131,559.077 192.131,558.243 188.5,556C 173.987,543.587 159.32,531.42 144.5,519.5C 144.44,518.957 144.107,518.624 143.5,518.5C 142.501,531.483 142.168,544.483 142.5,557.5C 139.167,557.5 135.833,557.5 132.5,557.5C 132.5,538.833 132.5,520.167 132.5,501.5C 135.5,501.5 138.5,501.5 141.5,501.5C 156.982,514.738 172.649,527.738 188.5,540.5C 188.56,541.043 188.893,541.376 189.5,541.5C 190.499,527.85 190.833,514.183 190.5,500.5C 193.833,500.5 197.167,500.5 200.5,500.5 Z" />
    </g>
    <g>
        <path style="opacity:1" fill="#b3b3b3"
            d="M 200.5,500.5 C 197.167,500.5 193.833,500.5 190.5,500.5C 190.833,514.183 190.499,527.85 189.5,541.5C 188.893,541.376 188.56,541.043 188.5,540.5C 189.496,527.01 189.829,513.344 189.5,499.5C 193.371,499.185 197.038,499.518 200.5,500.5 Z" />
    </g>
    <g>
        <path style="opacity:1" fill="#b4b4b4"
            d="M 141.5,501.5 C 138.5,501.5 135.5,501.5 132.5,501.5C 132.5,520.167 132.5,538.833 132.5,557.5C 131.503,538.674 131.17,519.674 131.5,500.5C 135.042,500.187 138.375,500.521 141.5,501.5 Z" />
    </g>
    <g>
        <path style="opacity:1" fill="#9e1e1e"
            d="M 752.5,505.5 C 756.833,505.5 761.167,505.5 765.5,505.5C 764.134,511.29 762.301,516.956 760,522.5C 753.055,528.223 745.222,532.223 736.5,534.5C 734.864,520.757 740.197,511.091 752.5,505.5 Z" />
    </g>
    <g>
        <path style="opacity:1" fill="#f9efef"
            d="M 394.5,519.5 C 391.581,518.707 388.915,517.374 386.5,515.5C 387.467,514.016 388.8,513.016 390.5,512.5C 402.095,509.984 412.429,512.484 421.5,520C 412.464,522.008 403.464,521.841 394.5,519.5 Z" />
    </g>
    <g>
        <path style="opacity:1" fill="#fbf7f7"
            d="M 343.5,512.5 C 345.527,512.338 347.527,512.505 349.5,513C 350.415,523.492 346.082,531.159 336.5,536C 332.848,536.499 329.182,536.665 325.5,536.5C 325.83,524.179 331.83,516.179 343.5,512.5 Z" />
    </g>
    <g>
        <path style="opacity:1" fill="#5a2726"
            d="M 519.5,498.5 C 519.55,504.389 518.884,510.056 517.5,515.5C 517.45,509.611 518.116,503.944 519.5,498.5 Z" />
    </g>
    <g>
        <path style="opacity:1" fill="#9a201f"
            d="M 802.5,512.5 C 805.941,512.301 809.274,512.801 812.5,514C 813.367,516.316 812.701,518.316 810.5,520C 804.112,524.537 797.112,526.037 789.5,524.5C 792.409,518.892 796.742,514.892 802.5,512.5 Z" />
    </g>
    <g>
        <path style="opacity:1" fill="#616160"
            d="M 144.5,519.5 C 143.833,532.167 143.167,544.833 142.5,557.5C 142.168,544.483 142.501,531.483 143.5,518.5C 144.107,518.624 144.44,518.957 144.5,519.5 Z" />
    </g>
    <g>
        <path style="opacity:0.996" fill="#292928"
            d="M 640.5,510.5 C 639.289,515.464 638.289,520.464 637.5,525.5C 644.508,525.666 651.508,525.5 658.5,525C 663.084,523.516 667.751,522.35 672.5,521.5C 673.239,521.369 673.906,521.536 674.5,522C 673.5,522.333 672.5,522.667 671.5,523C 682.674,523.17 693.674,523.67 704.5,524.5C 702.81,524.856 701.81,525.856 701.5,527.5C 697.076,529.643 692.743,531.976 688.5,534.5C 688.44,533.957 688.107,533.624 687.5,533.5C 684.167,535.5 680.833,537.5 677.5,539.5C 679.831,542.024 682.497,542.691 685.5,541.5C 690.57,543.23 695.903,544.23 701.5,544.5C 705.614,545.826 710.114,546.493 715,546.5C 737.423,546.321 759.257,542.654 780.5,535.5C 782.373,535.482 782.706,535.982 781.5,537C 778.244,538.116 775.578,539.949 773.5,542.5C 770.285,542.905 767.285,543.905 764.5,545.5C 754.177,550.046 743.843,554.38 733.5,558.5C 729.774,558.177 726.107,558.511 722.5,559.5C 722.624,560.107 722.957,560.44 723.5,560.5C 723.5,560.833 723.5,561.167 723.5,561.5C 716.403,562.358 709.403,563.691 702.5,565.5C 701.833,565.5 701.5,565.833 701.5,566.5C 692.848,567.504 684.181,567.504 675.5,566.5C 664.948,562.931 654.115,560.265 643,558.5C 635.454,558.18 628.954,560.513 623.5,565.5C 627.186,569.352 630.686,573.352 634,577.5C 638.262,587.953 641.929,598.62 645,609.5C 646.681,613.679 649.515,616.679 653.5,618.5C 660.993,620.128 668.326,622.128 675.5,624.5C 668.5,625.167 661.5,625.833 654.5,626.5C 656.171,634.135 654.838,641.135 650.5,647.5C 647.976,646.408 645.643,645.074 643.5,643.5C 637.879,635.895 638.212,628.562 644.5,621.5C 639.359,616.19 635.192,610.19 632,603.5C 629.206,608.78 625.706,613.447 621.5,617.5C 617.999,616.507 615.166,614.507 613,611.5C 607.632,600.252 610.632,592.252 622,587.5C 622.617,586.551 622.451,585.718 621.5,585C 615.734,579.953 609.067,578.287 601.5,580C 596.714,583.118 592.214,586.618 588,590.5C 587.502,593.482 587.335,596.482 587.5,599.5C 586.71,598.391 586.21,597.058 586,595.5C 585.667,595.833 585.333,596.167 585,596.5C 584.51,595.207 584.343,593.873 584.5,592.5C 559.759,592.177 535.092,592.51 510.5,593.5C 512.375,569.753 514.708,546.086 517.5,522.5C 538.758,523.488 560.091,523.822 581.5,523.5C 581.344,527.764 582.011,531.764 583.5,535.5C 583.369,536.239 583.536,536.906 584,537.5C 592.479,533.561 601.312,530.394 610.5,528C 612.4,525.665 614.4,523.498 616.5,521.5C 616.942,522.231 617.109,523.231 617,524.5C 623.41,523.522 629.91,523.189 636.5,523.5C 636.87,518.188 638.204,513.855 640.5,510.5 Z" />
    </g>
    <g>
        <path style="opacity:0.768" fill="#919090"
            d="M 688.5,534.5 C 687.736,537.018 686.736,539.351 685.5,541.5C 682.497,542.691 679.831,542.024 677.5,539.5C 680.833,537.5 684.167,535.5 687.5,533.5C 688.107,533.624 688.44,533.957 688.5,534.5 Z" />
    </g>
    <g>
        <path style="opacity:1" fill="#f8f1f1"
            d="M 465.5,537.5 C 470.594,546.05 470.761,554.717 466,563.5C 463.878,559.637 462.045,555.637 460.5,551.5C 461.398,546.466 463.065,541.799 465.5,537.5 Z" />
    </g>
    <g>
        <path style="opacity:1" fill="#9d1e1e"
            d="M 773.5,542.5 C 776.85,542.335 780.183,542.502 783.5,543C 787.04,543.6 789.707,545.434 791.5,548.5C 783.302,553.584 774.969,553.751 766.5,549C 765.177,548.184 764.511,547.017 764.5,545.5C 767.285,543.905 770.285,542.905 773.5,542.5 Z" />
    </g>
    <g>
        <path style="opacity:1" fill="#f9f4f4"
            d="M 369.5,543.5 C 374.705,543.134 379.705,543.967 384.5,546C 386.439,546.908 387.439,548.408 387.5,550.5C 379.041,553.238 370.374,554.071 361.5,553C 360.328,552.581 359.328,551.915 358.5,551C 361.886,547.982 365.553,545.482 369.5,543.5 Z" />
    </g>
    <g>
        <path style="opacity:1" fill="#faf0f0"
            d="M 430.5,546.5 C 433.833,546.5 437.167,546.5 440.5,546.5C 439.221,550.302 436.888,553.469 433.5,556C 428.301,559.6 422.635,562.1 416.5,563.5C 418.223,555.441 422.889,549.774 430.5,546.5 Z" />
    </g>
    <g>
        <path style="opacity:1" fill="#5e2b2a"
            d="M 733.5,558.5 C 736.385,558.194 739.052,558.527 741.5,559.5C 735.31,559.177 729.31,559.51 723.5,560.5C 722.957,560.44 722.624,560.107 722.5,559.5C 726.107,558.511 729.774,558.177 733.5,558.5 Z" />
    </g>
    <g>
        <path style="opacity:0.98" fill="#959494"
            d="M 675.5,566.5 C 673.485,571.193 671.485,575.859 669.5,580.5C 666.423,578.632 663.09,577.299 659.5,576.5C 653.837,577.291 648.337,578.624 643,580.5C 642.448,583.419 643.115,586.086 645,588.5C 649.344,594.076 654.844,597.743 661.5,599.5C 659.089,605.983 656.422,612.317 653.5,618.5C 649.515,616.679 646.681,613.679 645,609.5C 641.929,598.62 638.262,587.953 634,577.5C 630.686,573.352 627.186,569.352 623.5,565.5C 628.954,560.513 635.454,558.18 643,558.5C 654.115,560.265 664.948,562.931 675.5,566.5 Z" />
    </g>
    <g>
        <path style="opacity:1" fill="#9e1e1e"
            d="M 741.5,559.5 C 747.21,561.615 751.71,565.281 755,570.5C 755.711,572.367 755.211,573.867 753.5,575C 738.364,581.595 728.364,577.095 723.5,561.5C 723.5,561.167 723.5,560.833 723.5,560.5C 729.31,559.51 735.31,559.177 741.5,559.5 Z" />
    </g>
    <g>
        <path style="opacity:1" fill="#f7f7f7"
            d="M 199.5,562.5 C 200.485,566.634 200.818,570.968 200.5,575.5C 195.131,577.347 189.964,579.68 185,582.5C 184.333,593.833 184.333,605.167 185,616.5C 189.96,619.191 195.127,621.191 200.5,622.5C 200.818,627.032 200.485,631.366 199.5,635.5C 176.953,626.228 154.62,616.395 132.5,606C 131.2,601.55 131.2,597.05 132.5,592.5C 154.777,582.191 177.111,572.191 199.5,562.5 Z" />
    </g>
    <g>
        <path style="opacity:1" fill="#595958"
            d="M 199.5,562.5 C 199.56,561.957 199.893,561.624 200.5,561.5C 201.812,566.318 201.812,570.985 200.5,575.5C 200.818,570.968 200.485,566.634 199.5,562.5 Z" />
    </g>
    <g>
        <path style="opacity:1" fill="#f8f1f1"
            d="M 383.5,569.5 C 385.167,569.5 386.833,569.5 388.5,569.5C 388.355,579.294 383.688,585.628 374.5,588.5C 373.494,580.182 376.494,573.849 383.5,569.5 Z" />
    </g>
    <g>
        <path style="opacity:1" fill="#fbf4f4"
            d="M 487.5,572.5 C 489.5,572.5 491.5,572.5 493.5,572.5C 493.369,580.968 489.035,585.634 480.5,586.5C 480.336,583.813 480.503,581.146 481,578.5C 483.063,576.266 485.229,574.266 487.5,572.5 Z" />
    </g>
    <g>
        <path style="opacity:0.946" fill="#a0201f"
            d="M 669.5,580.5 C 682.156,592.811 679.489,599.144 661.5,599.5C 654.844,597.743 649.344,594.076 645,588.5C 643.115,586.086 642.448,583.419 643,580.5C 648.337,578.624 653.837,577.291 659.5,576.5C 663.09,577.299 666.423,578.632 669.5,580.5 Z" />
    </g>
    <g>
        <path style="opacity:1" fill="#fbf3f3"
            d="M 443.5,578.5 C 444.496,578.414 445.329,578.748 446,579.5C 447.436,589.7 443.936,597.7 435.5,603.5C 432.959,593.457 435.626,585.124 443.5,578.5 Z" />
    </g>
    <g>
        <path style="opacity:0.982" fill="#979696"
            d="M 643.5,643.5 C 630.757,673.997 618.257,704.664 606,735.5C 605.451,737.76 604.284,739.426 602.5,740.5C 597.715,693.438 592.715,646.438 587.5,599.5C 587.335,596.482 587.502,593.482 588,590.5C 592.214,586.618 596.714,583.118 601.5,580C 609.067,578.287 615.734,579.953 621.5,585C 622.451,585.718 622.617,586.551 622,587.5C 610.632,592.252 607.632,600.252 613,611.5C 615.166,614.507 617.999,616.507 621.5,617.5C 625.706,613.447 629.206,608.78 632,603.5C 635.192,610.19 639.359,616.19 644.5,621.5C 638.212,628.562 637.879,635.895 643.5,643.5 Z" />
    </g>
    <g>
        <path style="opacity:1" fill="#262625"
            d="M 172.5,586.5 C 173.825,590.276 174.491,594.443 174.5,599C 174.167,603.167 173.833,607.333 173.5,611.5C 163.969,607.821 154.636,603.655 145.5,599C 154.768,595.305 163.768,591.138 172.5,586.5 Z" />
    </g>
    <g>
        <path style="opacity:1" fill="#1f1f1f"
            d="M 903.5,587.5 C 972.665,588.499 1042,588.833 1111.5,588.5C 1041.83,589.833 972.167,589.833 902.5,588.5C 902.5,587.833 902.833,587.5 903.5,587.5 Z" />
    </g>
    <g>
        <path style="opacity:0.99" fill="#050505"
            d="M 902.5,588.5 C 972.167,589.833 1041.83,589.833 1111.5,588.5C 1112.17,588.5 1112.83,588.5 1113.5,588.5C 1223.17,588.5 1332.83,588.5 1442.5,588.5C 1442.5,635.833 1442.5,683.167 1442.5,730.5C 1262.17,730.5 1081.83,730.5 901.5,730.5C 901.168,682.997 901.501,635.664 902.5,588.5 Z" />
    </g>
    <g>
        <path style="opacity:0.821" fill="#fcf9f9"
            d="M 398.5,607.5 C 395.193,607.937 392.193,607.27 389.5,605.5C 392.242,602.091 395.242,599.091 398.5,596.5C 402.925,592.811 407.925,591.478 413.5,592.5C 411.803,600.841 406.803,605.841 398.5,607.5 Z" />
    </g>
    <g>
        <path style="opacity:1" fill="#faefee"
            d="M 474.5,607.5 C 484.102,606.896 485.769,610.063 479.5,617C 464.983,619.374 463.316,616.208 474.5,607.5 Z" />
    </g>
    <g>
        <path style="opacity:1" fill="#232322"
            d="M 587.5,599.5 C 592.715,646.438 597.715,693.438 602.5,740.5C 566.818,741.16 531.484,740.493 496.5,738.5C 499.97,708.006 502.97,677.339 505.5,646.5C 506.957,641.402 507.624,636.069 507.5,630.5C 508.087,618.134 509.087,605.8 510.5,593.5C 535.092,592.51 559.759,592.177 584.5,592.5C 584.343,593.873 584.51,595.207 585,596.5C 585.333,596.167 585.667,595.833 586,595.5C 586.21,597.058 586.71,598.391 587.5,599.5 Z" />
    </g>
    <g>
        <path style="opacity:0.76" fill="#a01d1d"
            d="M 685.5,613.5 C 689.182,613.335 692.848,613.501 696.5,614C 699.132,616.066 699.799,618.566 698.5,621.5C 691.811,626.028 686.144,625.028 681.5,618.5C 682.508,616.501 683.841,614.834 685.5,613.5 Z" />
    </g>
    <g>
        <path style="opacity:1" fill="#595958"
            d="M 200.5,622.5 C 201.812,627.015 201.812,631.682 200.5,636.5C 199.893,636.376 199.56,636.043 199.5,635.5C 200.485,631.366 200.818,627.032 200.5,622.5 Z" />
    </g>
    <g>
        <path style="opacity:1" fill="#fbfbfb"
            d="M 200.5,656.5 C 185.485,656.167 170.485,656.501 155.5,657.5C 155.624,658.107 155.957,658.44 156.5,658.5C 168.139,665.322 179.806,672.155 191.5,679C 192.777,681.466 192.777,683.966 191.5,686.5C 180.483,693.194 169.483,699.86 158.5,706.5C 157.624,706.369 156.957,706.702 156.5,707.5C 171.152,708.499 185.818,708.833 200.5,708.5C 200.5,712.167 200.5,715.833 200.5,719.5C 177.833,719.5 155.167,719.5 132.5,719.5C 132.5,716.167 132.5,712.833 132.5,709.5C 147.149,700.527 161.816,691.527 176.5,682.5C 161.833,673.833 147.167,665.167 132.5,656.5C 131.511,652.893 131.177,649.226 131.5,645.5C 154.5,645.5 177.5,645.5 200.5,645.5C 200.5,649.167 200.5,652.833 200.5,656.5 Z" />
    </g>
    <g>
        <path style="opacity:1" fill="#572220"
            d="M 507.5,630.5 C 507.624,636.069 506.957,641.402 505.5,646.5C 505.527,640.949 506.194,635.616 507.5,630.5 Z" />
    </g>
    <g>
        <path style="opacity:1" fill="#bebebe"
            d="M 200.5,656.5 C 185.833,657.167 171.167,657.833 156.5,658.5C 155.957,658.44 155.624,658.107 155.5,657.5C 170.485,656.501 185.485,656.167 200.5,656.5 Z" />
    </g>
    <g>
        <path style="opacity:1" fill="#7b7b7a"
            d="M 158.5,706.5 C 172.5,707.167 186.5,707.833 200.5,708.5C 185.818,708.833 171.152,708.499 156.5,707.5C 156.957,706.702 157.624,706.369 158.5,706.5 Z" />
    </g>
    <g>
        <path style="opacity:1" fill="#d2d2d1"
            d="M 132.5,709.5 C 132.5,712.833 132.5,716.167 132.5,719.5C 155.167,719.5 177.833,719.5 200.5,719.5C 177.673,720.498 154.673,720.831 131.5,720.5C 131.185,716.629 131.518,712.962 132.5,709.5 Z" />
    </g>
</svg>